<?xml version="1.0" encoding="UTF-8"?>
<svg width="105px" height="113px" viewBox="0 0 105 113" version="1.1" xmlns="http://www.w3.org/2000/svg" xmlns:xlink="http://www.w3.org/1999/xlink">
    <!-- Generator: Sketch 64 (93537) - https://sketch.com -->
    <title>Group 15</title>
    <desc>Created with Sketch.</desc>
    <defs>
        <polygon id="path-1" points="0 0.2042 89.9436 0.2042 89.9436 102 0 102"></polygon>
        <polygon id="path-3" points="0.1782 0.5334 40.078 0.5334 40.078 40.4314 0.1782 40.4314"></polygon>
    </defs>
    <g id="Page-1" stroke="none" stroke-width="1" fill="none" fill-rule="evenodd">
        <g id="ADD-ICONS" transform="translate(-423.000000, -286.000000)">
            <g id="Group-15" transform="translate(423.000000, 285.000000)">
                <g id="Group-3" transform="translate(0.000000, 11.467000)">
                    <mask id="mask-2" fill="white">
                        <use xlink:href="#path-1"></use>
                    </mask>
                    <g id="Clip-2"></g>
                    <path d="M85.4016,95.8442 C85.4016,97.0342 84.4296,98.0082 83.2376,98.0082 L6.7036,98.0082 C5.5156,98.0082 4.5416,97.0342 4.5416,95.8442 L4.5416,63.1622 L4.5416,6.3582 C4.5416,5.1682 5.5156,4.1962 6.7036,4.1962 L66.2556,4.1962 C66.6676,2.7862 67.2276,1.4562 67.9376,0.2042 L5.4856,0.2042 C2.4696,0.2042 -0.0004,2.6722 -0.0004,5.6882 L-0.0004,64.1902 L-0.0004,96.5142 C-0.0004,99.5322 2.4696,102.0002 5.4856,102.0002 L84.4556,102.0002 C87.4736,102.0002 89.9436,99.5322 89.9436,96.5142 L89.9436,27.5202 C88.4896,27.9682 86.9796,28.2582 85.4016,28.3442 L85.4016,95.8442 Z" id="Fill-1" fill="#161948" mask="url(#mask-2)"></path>
                </g>
                <path d="M57.1574,85.487 L32.7854,85.487 C29.8274,85.487 27.4234,83.083 27.4234,80.125 L27.4234,49.905 C27.4234,46.945 29.8274,44.543 32.7854,44.543 L36.6854,44.543 C37.4914,44.543 38.1474,45.197 38.1474,46.005 C38.1474,46.813 37.4914,47.467 36.6854,47.467 L32.7854,47.467 C31.4434,47.467 30.3494,48.561 30.3494,49.905 L30.3494,80.125 C30.3494,81.469 31.4434,82.563 32.7854,82.563 L57.1574,82.563 C58.5014,82.563 59.5954,81.469 59.5954,80.125 L59.5954,49.905 C59.5954,48.561 58.5014,47.467 57.1574,47.467 L53.2574,47.467 C52.4494,47.467 51.7954,46.813 51.7954,46.005 C51.7954,45.197 52.4494,44.543 53.2574,44.543 L57.1574,44.543 C60.1154,44.543 62.5194,46.945 62.5194,49.905 L62.5194,80.125 C62.5194,83.083 60.1154,85.487 57.1574,85.487" id="Fill-4" fill="#161948"></path>
                <path d="M38.1476,45.5184 L38.1476,46.9784 C38.1476,47.2484 38.3656,47.4684 38.6336,47.4684 L51.3076,47.4684 C51.5776,47.4684 51.7956,47.2484 51.7956,46.9784 L51.7956,45.5184 L48.8696,45.5184 C48.0636,45.5184 47.4096,44.8624 47.4096,44.0564 C47.4096,42.7124 46.3156,41.6184 44.9716,41.6184 C43.6276,41.6184 42.5336,42.7124 42.5336,44.0564 C42.5336,44.8624 41.8776,45.5184 41.0716,45.5184 L38.1476,45.5184 Z M51.3076,50.3924 L38.6336,50.3924 C36.7536,50.3924 35.2216,48.8624 35.2216,46.9784 L35.2216,44.0564 C35.2216,43.2484 35.8776,42.5924 36.6856,42.5924 L39.8116,42.5924 C40.4496,40.3444 42.5236,38.6944 44.9716,38.6944 C47.4216,38.6944 49.4936,40.3444 50.1296,42.5924 L53.2576,42.5924 C54.0656,42.5924 54.7196,43.2484 54.7196,44.0564 L54.7196,46.9784 C54.7196,48.8624 53.1896,50.3924 51.3076,50.3924 L51.3076,50.3924 Z" id="Fill-6" fill="#161948"></path>
                <path d="M82.4894,26.9226 L82.4894,14.9766 C82.4894,14.0746 83.2274,13.3386 84.1274,13.3386 C85.0294,13.3386 85.7674,14.0746 85.7674,14.9766 L85.7674,26.9226 C85.7674,27.8226 85.0294,28.5606 84.1274,28.5606 C83.2274,28.5606 82.4894,27.8226 82.4894,26.9226" id="Fill-8" fill="#161948"></path>
                <path d="M78.1204,19.4422 L90.0644,19.1822 C90.9664,19.1622 91.7184,19.8842 91.7384,20.7842 C91.7564,21.6842 91.0364,22.4382 90.1364,22.4582 L78.1924,22.7182 C77.2924,22.7362 76.5384,22.0162 76.5184,21.1142 C76.4984,20.2142 77.2204,19.4622 78.1204,19.4422" id="Fill-10" fill="#161948"></path>
                <g id="Group-14" transform="translate(64.000000, 0.467000)">
                    <mask id="mask-4" fill="white">
                        <use xlink:href="#path-3"></use>
                    </mask>
                    <g id="Clip-13"></g>
                    <path d="M20.1282,37.6274 C10.6602,37.6274 2.9842,29.9514 2.9842,20.4834 C2.9842,11.0134 10.6602,3.3374 20.1282,3.3374 C29.5962,3.3374 37.2722,11.0134 37.2722,20.4834 C37.2722,29.9514 29.5962,37.6274 20.1282,37.6274 M20.1282,0.5334 C9.1102,0.5334 0.1782,9.4654 0.1782,20.4834 C0.1782,31.5014 9.1102,40.4314 20.1282,40.4314 C31.1462,40.4314 40.0782,31.5014 40.0782,20.4834 C40.0782,9.4654 31.1462,0.5334 20.1282,0.5334" id="Fill-12" fill="#161948" mask="url(#mask-4)"></path>
                </g>
            </g>
        </g>
    </g>
</svg>