<?xml version="1.0" encoding="UTF-8"?>
<svg width="12px" height="13px" viewBox="0 0 12 13" version="1.1" xmlns="http://www.w3.org/2000/svg" xmlns:xlink="http://www.w3.org/1999/xlink">
    <!-- Generator: Sketch 64 (93537) - https://sketch.com -->
    <title>Group 23</title>
    <desc>Created with Sketch.</desc>
    <g id="Page-1" stroke="none" stroke-width="1" fill="none" fill-rule="evenodd">
        <g id="19_Dashboard-" transform="translate(-842.000000, -22.000000)">
            <g id="Group-14" transform="translate(832.000000, 13.000000)">
                <g id="Group-23" transform="translate(10.560000, 9.680000)">
                    <path d="M0.76260762,0.770614051 L7.53760612,0.0931142006 C8.00300098,0.0465747148 8.41800577,0.386124083 8.46454525,0.851518942 C8.46734543,0.879520729 8.46874813,0.907644687 8.46874813,0.935786135 L8.46874813,10.6687428 C8.46874813,11.1364588 8.08958936,11.5156176 7.62187332,11.5156176 C7.60307995,11.5156176 7.58429179,11.514992 7.56554004,11.5137419 L0.790541538,11.0620753 C0.345680029,11.0324179 2.76645359e-16,10.6629252 0,10.2170762 L0,1.61328599 C-5.32823201e-17,1.17820282 0.329683693,0.813906444 0.76260762,0.770614051 Z" id="Rectangle" fill="#4371FD"></path>
                    <path d="M9.88020615,1.12916642 C10.3479222,1.12916642 10.727081,1.50832519 10.727081,1.97604123 L10.727081,9.31562294 C10.727081,9.78333899 10.3479222,10.1624978 9.88020615,10.1624978 L9.59791455,10.1624978 C9.49859984,10.1624978 9.40327802,10.1454022 9.31473131,10.1139933 L9.31473131,1.17767092 C9.40327802,1.14626199 9.49859984,1.12916642 9.59791455,1.12916642 L9.88020615,1.12916642 Z" id="Combined-Shape" fill="#4371FD"></path>
                    <line x1="1.84233866" y1="5.51075114" x2="4.23437406" y2="5.51075114" id="Path-46" stroke="#FFFFFF" stroke-width="0.564583209" stroke-linecap="round"></line>
                    <line x1="1.84233866" y1="7.06225227" x2="6.1789883" y2="7.06225227" id="Path-47" stroke="#FFFFFF" stroke-width="0.564583209" stroke-linecap="round"></line>
                    <line x1="1.84233866" y1="8.72264517" x2="6.1789883" y2="8.72264517" id="Path-48" stroke="#FFFFFF" stroke-width="0.564583209" stroke-linecap="round"></line>
                </g>
            </g>
        </g>
    </g>
</svg>