<?xml version="1.0" encoding="UTF-8"?>
<svg width="32px" height="36px" viewBox="0 0 32 36" version="1.1" xmlns="http://www.w3.org/2000/svg" xmlns:xlink="http://www.w3.org/1999/xlink">
    <!-- Generator: Sketch 62 (91390) - https://sketch.com -->
    <title>Group 2</title>
    <desc>Created with Sketch.</desc>
    <g id="Page-1" stroke="none" stroke-width="1" fill="none" fill-rule="evenodd">
        <g id="Lnading-page" transform="translate(-791.000000, -292.000000)">
            <g id="Group-2" transform="translate(791.000000, 291.027493)">
                <rect id="Rectangle" fill="#C54A4A" x="9.7" y="0.972507377" width="13.5134989" height="7.86239935" rx="1.71989986"></rect>
                <path d="M28.8059003,4.00021553 C30.5699528,4.00021553 32,5.43026269 32,7.19431527 L32,32.8061158 C32,34.5701684 30.5699528,36.0002155 28.8059003,36.0002155 L3.19409974,36.0002155 C1.43004716,36.0002155 -6.72144286e-16,34.5701684 0,32.8061158 L0,7.19431527 C-2.16034134e-16,5.43026269 1.43004716,4.00021553 3.19409974,4.00021553 L7.47248472,3.99992665 C7.46862452,4.06422856 7.46666667,4.12904327 7.46666667,4.19431527 L7.46666667,4.19431527 L7.46666667,7.80611579 C7.46666667,9.57016837 8.89671383,11.0002155 10.6607664,11.0002155 L10.6607664,11.0002155 L22.4059003,11.0002155 C24.1699528,11.0002155 25.6,9.57016837 25.6,7.80611579 L25.6,7.80611579 L25.6,4.19431527 C25.6,4.12904327 25.5980421,4.06422856 25.594182,3.99992665 L28.8059003,4.00021553 Z" id="Combined-Shape" fill="#EF5C5B"></path>
                <rect id="Rectangle" fill="#C54A4A" x="6" y="16" width="19.6559984" height="1.71989986" rx="0.859949929"></rect>
                <rect id="Rectangle" fill="#C54A4A" x="6" y="21" width="19.6559984" height="1.71989986" rx="0.859949929"></rect>
                <rect id="Rectangle" fill="#C54A4A" x="6" y="26" width="19.6559984" height="1.71989986" rx="0.859949929"></rect>
            </g>
        </g>
    </g>
</svg>