<?xml version="1.0" encoding="UTF-8"?>
<svg width="8px" height="10px" viewBox="0 0 8 10" version="1.1" xmlns="http://www.w3.org/2000/svg" xmlns:xlink="http://www.w3.org/1999/xlink">
    <!-- Generator: Sketch 64 (93537) - https://sketch.com -->
    <title>notes</title>
    <desc>Created with Sketch.</desc>
    <g id="Page-1" stroke="none" stroke-width="1" fill="none" fill-rule="evenodd">
        <g id="1_Students-dashboard" transform="translate(-750.000000, -179.000000)" fill="#FF8F99" fill-rule="nonzero">
            <g id="Group-8-Copy" transform="translate(741.000000, 172.000000)">
                <g id="notes" transform="translate(9.000000, 7.000000)">
                    <path d="M7.2388877,1.25742857 L6.14190802,0.233754202 C6.03820107,0.137193277 5.91062246,0.0803193277 5.77615187,0.0433739496 L5.77615187,1.70168067 L7.49052193,1.70168067 C7.45469519,1.53321429 7.36729412,1.37715126 7.2388877,1.25742857 Z" id="Path"></path>
                    <path d="M7.50875294,3.76561134 L7.50875294,2.26890756 L5.48736257,2.26890756 C5.32774973,2.26890756 5.19859251,2.14205672 5.19859251,1.98529412 L5.19859251,0 L0.867041711,0 C0.389339037,0 0.000731550802,0.381668067 0.000731550802,0.850840336 L0.000731550802,8.82983193 C0.000731550802,9.2990042 0.389339037,9.68067227 0.867041711,9.68067227 L6.64244278,9.68067227 C7.12014545,9.68067227 7.50875294,9.2990042 7.50875294,8.82983193 L7.50875294,8.15938866 L7.50875294,3.76561134 Z" id="Shape"></path>
                </g>
            </g>
        </g>
    </g>
</svg>