<?xml version="1.0" encoding="iso-8859-1"?>
<!-- Generator: Adobe Illustrator 19.0.0, SVG Export Plug-In . SVG Version: 6.00 Build 0)  -->
<svg version="1.1" id="Layer_1" xmlns="http://www.w3.org/2000/svg" xmlns:xlink="http://www.w3.org/1999/xlink" x="0px" y="0px"
	 viewBox="0 0 512.002 512.002" style="enable-background:new 0 0 512.002 512.002;" xml:space="preserve">
<path style="fill:#FFE365;" d="M447.434,512H64.556c-9.22,0-16.695-7.475-16.695-16.695V16.712c0-9.22,7.475-16.695,16.695-16.695
	h261.04c4.429,0,8.675,1.759,11.805,4.889l121.838,121.839c3.131,3.131,4.891,7.377,4.891,11.805v356.756
	C464.129,504.527,456.654,512,447.434,512z"/>
<path style="fill:#FFC733;" d="M459.238,126.745L337.402,4.907c-3.131-3.131-7.377-4.889-11.805-4.889h-69.603v511.984h191.439
	c9.22,0,16.695-7.475,16.695-16.695V138.55C464.129,134.122,462.37,129.876,459.238,126.745z"/>
<path style="fill:#1C3D66;" d="M165.654,431.087c-17.464-17.465-17.465-45.885-0.001-63.352l111.581-111.579
	c6.519-6.52,17.09-6.52,23.61,0c6.52,6.519,6.52,17.09,0,23.61l-111.58,111.579c-4.447,4.447-4.447,11.683,0,16.13
	c4.448,4.445,11.682,4.445,16.13,0l117.008-117.007c15.402-15.403,15.402-40.464,0-55.867c-15.406-15.404-40.467-15.401-55.867,0
	l-93.41,93.409c-6.519,6.52-17.09,6.52-23.61,0c-6.52-6.519-6.52-17.09,0-23.61l93.41-93.409c28.421-28.423,74.667-28.421,103.088,0
	c28.42,28.421,28.42,74.667,0,103.088L229.005,431.086C211.54,448.552,183.122,448.553,165.654,431.087z"/>
<path style="fill:#FFAF00;" d="M447.434,155.239H325.599c-9.22,0-16.695-7.475-16.695-16.695V16.708
	c0-14.867,18.028-22.279,28.5-11.806l121.834,121.834C469.714,137.213,462.298,155.239,447.434,155.239z"/>
<g>
	<path style="fill:#163457;" d="M346.013,210.992c-24.392-24.392-61.904-27.831-90.019-10.353v44.504l10.54-10.54
		c15.4-15.401,40.461-15.404,55.867,0c15.402,15.403,15.402,40.464,0,55.867l-66.407,66.408v47.221l90.019-90.017
		C374.433,285.659,374.433,239.413,346.013,210.992z"/>
	<path style="fill:#163457;" d="M300.845,279.767c6.52-6.519,6.52-17.09,0-23.61c-6.519-6.52-17.09-6.52-23.61,0l-21.24,21.24
		v47.221L300.845,279.767z"/>
</g>
<g>
</g>
<g>
</g>
<g>
</g>
<g>
</g>
<g>
</g>
<g>
</g>
<g>
</g>
<g>
</g>
<g>
</g>
<g>
</g>
<g>
</g>
<g>
</g>
<g>
</g>
<g>
</g>
<g>
</g>
</svg>
