<?xml version="1.0" encoding="UTF-8"?>
<svg width="27px" height="27px" viewBox="0 0 27 27" version="1.1" xmlns="http://www.w3.org/2000/svg" xmlns:xlink="http://www.w3.org/1999/xlink">
    <!-- Generator: Sketch 62 (91390) - https://sketch.com -->
    <title>Group 21</title>
    <desc>Created with Sketch.</desc>
    <g id="Page-1" stroke="none" stroke-width="1" fill="none" fill-rule="evenodd">
        <g id="18_Dashboard-" transform="translate(-344.000000, -207.000000)">
            <g id="Group-21" transform="translate(344.000000, 207.000000)">
                <circle id="Oval" fill="#C9E6FF" cx="13.5" cy="13.5" r="13.5"></circle>
                <g id="Group-23" transform="translate(8.000000, 8.000000)">
                    <path d="M0.722166306,0.729748154 L7.13788459,0.0881763264 C7.57859941,0.0441048436 7.97159637,0.365647806 8.01566785,0.806362634 C8.01831954,0.832879478 8.01964785,0.859512014 8.01964785,0.886161113 L8.01964785,10.1029761 C8.01964785,10.545889 7.66059599,10.9049409 7.21768307,10.9049409 C7.19988631,10.9049409 7.18209449,10.9043485 7.16433716,10.9031647 L0.748618881,10.4754501 C0.327348512,10.4473654 1.62727562e-16,10.0974671 0,9.67526157 L0,1.52773294 C-2.72501347e-16,1.11572237 0.312200467,0.770744738 0.722166306,0.729748154 Z" id="Rectangle" fill="#4371FD"></path>
                    <path d="M9.35625583,1.06928638 C9.79916875,1.06928638 10.1582206,1.42833824 10.1582206,1.87125117 L10.1582206,8.82161264 C10.1582206,9.26452556 9.79916875,9.62357742 9.35625583,9.62357742 L9.08893423,9.62357742 C8.99458592,9.62357742 8.90404293,9.60728488 8.81996526,9.5773598 L8.81996526,1.115504 C8.90404293,1.08557892 8.99458592,1.06928638 9.08893423,1.06928638 L9.35625583,1.06928638 Z" id="Combined-Shape" fill="#4371FD"></path>
                    <line x1="1.74463889" y1="5.21851434" x2="4.00982393" y2="5.21851434" id="Path-46" stroke="#FFFFFF" stroke-width="0.53464319" stroke-linecap="round"></line>
                    <line x1="1.74463889" y1="6.68773889" x2="5.85131468" y2="6.68773889" id="Path-47" stroke="#FFFFFF" stroke-width="0.53464319" stroke-linecap="round"></line>
                    <line x1="1.74463889" y1="8.26008065" x2="5.85131468" y2="8.26008065" id="Path-48" stroke="#FFFFFF" stroke-width="0.53464319" stroke-linecap="round"></line>
                </g>
            </g>
        </g>
    </g>
</svg>