<?xml version="1.0" encoding="UTF-8"?>
<svg width="14px" height="14px" viewBox="0 0 14 14" version="1.1" xmlns="http://www.w3.org/2000/svg" xmlns:xlink="http://www.w3.org/1999/xlink">
    <!-- Generator: Sketch 62 (91390) - https://sketch.com -->
    <title>icon (1)</title>
    <desc>Created with Sketch.</desc>
    <g id="Page-1" stroke="none" stroke-width="1" fill="none" fill-rule="evenodd">
        <g id="18_Dashboard-" transform="translate(-1109.000000, -380.000000)" fill="#9D9D9D" fill-rule="nonzero">
            <g id="icon-(1)" transform="translate(1109.000000, 380.000000)">
                <path d="M8.1752,5.3564 C8.1752,5.3564 5.8572,6.0664 5.4128,6.5112 C4.9688,6.954 4.9688,7.6736 5.4128,8.1184 C5.8572,8.562 6.5768,8.562 7.0204,8.1184 C7.464,7.6736 8.1752,5.3564 8.1752,5.3564 Z" id="Path"></path>
                <path d="M11.2628,2.8928 L12.454,4.0844 L13.4748,3.0624 C13.4748,3.0624 12.7976,1.3724 10.4116,0 L9.3904,1.0212 L10.582,2.212 L10.582,2.212 L10.582,2.2128 L10.324,2.4712 C9.2296,1.5328 7.8108,0.9632 6.256,0.9632 C2.8004,0.9632 0,3.7632 0,7.2196 C0,10.6744 2.8004,13.4752 6.256,13.4752 C9.7116,13.4752 12.512,10.6744 12.512,7.2196 C12.512,5.664 11.9416,4.2452 11.0044,3.1516 L11.2628,2.8928 Z M10.9752,7.3248 C10.9744,7.3296 10.974,7.3348 10.974,7.3412 L11.0636,7.3412 C11.014,8.4528 10.5824,9.4944 9.8324,10.3156 L9.776,10.2592 C9.7644,10.2724 9.754,10.2864 9.7424,10.2992 L8.8888,9.446 L8.6212,9.714 L9.5276,10.6204 C8.7048,11.3704 7.6652,11.8024 6.552,11.8524 L6.552,11.8288 C6.522,11.8312 6.4936,11.8344 6.4628,11.836 L6.4628,10.5712 L6.1216,10.5712 L6.1216,11.8524 C5.9516,11.8444 5.7852,11.8252 5.6196,11.8 C4.6636,11.6752 3.7768,11.2624 3.0568,10.6048 L3.9644,9.6976 L3.712,9.446 L2.8416,10.3164 C2.8252,10.2968 2.8116,10.2772 2.7936,10.2592 L2.7528,10.3008 C1.9804,9.4556 1.5696,8.3984 1.5212,7.3252 L2.8028,7.3252 L2.8028,6.9104 L1.6108,6.9104 C1.6108,6.9056 1.6116,6.8996 1.6116,6.8948 L1.5212,6.8948 C1.5696,5.8212 1.9804,4.7644 2.7536,3.9192 L2.8088,3.9756 C2.8212,3.9624 2.8308,3.9484 2.8428,3.9348 L3.6964,4.7904 L3.9648,4.5216 L3.058,3.6148 C3.8796,2.864 4.922,2.4328 6.0332,2.3836 L6.0332,2.4072 C6.062,2.4048 6.0924,2.4008 6.122,2.3992 L6.122,3.664 L6.4632,3.664 L6.4632,2.3836 C6.6324,2.3908 6.8,2.4108 6.9652,2.436 C7.9216,2.5616 8.8076,2.9744 9.5268,3.6312 L8.6212,4.5368 L8.8736,4.79 L9.7424,3.9196 C9.7596,3.9384 9.7736,3.9588 9.7896,3.9776 L9.832,3.9356 C10.582,4.7576 11.0136,5.798 11.0632,6.9108 L9.7812,6.9108 L9.7812,7.3256 L10.9752,7.3256 L10.9752,7.3248 Z" id="Shape"></path>
            </g>
        </g>
    </g>
</svg>