<?xml version="1.0" encoding="UTF-8"?>
<svg width="9px" height="11px" viewBox="0 0 9 11" version="1.1" xmlns="http://www.w3.org/2000/svg" xmlns:xlink="http://www.w3.org/1999/xlink">
    <!-- Generator: Sketch 64 (93537) - https://sketch.com -->
    <title>Group 13</title>
    <desc>Created with Sketch.</desc>
    <g id="Page-1" stroke="none" stroke-width="1" fill="none" fill-rule="evenodd">
        <g id="1_Students-dashboard" transform="translate(-968.000000, -178.000000)" fill="#339900" fill-rule="nonzero">
            <g id="Group-13" transform="translate(968.000000, 178.000000)">
                <path d="M5.62916667,0.576923077 C5.57809,0.576923077 4.91869194,0.576923077 4.66666667,0.576923077 C4.66666667,0.258288462 4.3793925,0 4.025,0 C3.6706075,0 3.38333333,0.258288462 3.38333333,0.576923077 C3.15053667,0.576923077 3.01938,0.576923077 2.42083333,0.576923077 C2.24364778,0.576923077 2.1,0.725307692 2.1,0.884615385 L2.1,1.17307692 C2.1,1.49171154 2.38727417,1.75 2.74166667,1.75 L5.30833333,1.75 C5.66272583,1.75 5.95,1.49171154 5.95,1.17307692 L5.95,0.884615385 C5.95,0.725307692 5.80635222,0.576923077 5.62916667,0.576923077 Z" id="Path"></path>
                <path d="M7.12589286,1.4 L6.50982143,1.4 C6.50982143,2.09337018 5.93669018,2.65720621 5.25714286,2.65720621 L2.79285714,2.65720621 C2.11330982,2.65720621 1.56071429,2.09337018 1.56071429,1.4 L0.944642857,1.4 C0.435069643,1.4 0,1.82296608 0,2.34290466 L0,9.88614191 C0,10.4060805 0.435069643,10.85 0.944642857,10.85 L7.12589286,10.85 C7.63546607,10.85 8.05,10.4060805 8.05,9.88614191 L8.05,2.34290466 C8.05,1.82296608 7.63546607,1.4 7.12589286,1.4 Z M1.34293304,3.82232206 C1.22261429,3.69955588 1.22261429,3.5006449 1.34293304,3.37787871 C1.46325179,3.25511253 1.65819732,3.25511253 1.77851607,3.37787871 L2.17678571,3.78427062 L2.57507589,3.37787871 C2.69539464,3.25511253 2.89034018,3.25511253 3.01065893,3.37787871 C3.13097768,3.5006449 3.13097768,3.69955588 3.01065893,3.82232206 L2.61236875,4.22871397 L3.01065893,4.63510588 C3.13097768,4.75787206 3.13097768,4.95678304 3.01065893,5.07954922 C2.89034018,5.20231541 2.69539464,5.20231541 2.57507589,5.07954922 L2.17678571,4.67315732 L1.77849554,5.07954922 C1.65817679,5.20231541 1.46323125,5.20231541 1.3429125,5.07954922 C1.22259375,4.95678304 1.22259375,4.75787206 1.3429125,4.63510588 L1.74120268,4.22871397 L1.34293304,3.82232206 Z M3.62673036,8.22254379 L2.3945875,9.47975 C2.33441786,9.54114357 2.25560179,9.57184035 2.17680625,9.57184035 C2.09801071,9.57184035 2.01917411,9.54114357 1.959025,9.47975 L1.34295357,8.8511469 C1.22259375,8.72838071 1.22259375,8.52949069 1.34293304,8.4067245 C1.46325179,8.28395831 1.65819732,8.28395831 1.77851607,8.4067245 L2.17678571,8.81309545 L3.19114732,7.77810044 C3.31146607,7.65533426 3.50641161,7.65533426 3.62673036,7.77810044 C3.74704911,7.90086663 3.74704911,8.09977761 3.62673036,8.22254379 Z M3.62673036,6.02243293 L2.3945875,7.27963914 C2.33441786,7.34103271 2.25560179,7.37172949 2.17680625,7.37172949 C2.09801071,7.37172949 2.01917411,7.34103271 1.959025,7.27963914 L1.34295357,6.65103603 C1.22259375,6.52826984 1.22259375,6.32937982 1.34293304,6.20661364 C1.46325179,6.08384745 1.65819732,6.08384745 1.77851607,6.20661364 L2.17678571,6.61298459 L3.19114732,5.57798958 C3.31146607,5.45522339 3.50641161,5.45522339 3.62673036,5.57798958 C3.74704911,5.70075576 3.74704911,5.89966674 3.62673036,6.02243293 Z M6.50982143,8.94323725 L4.64107143,8.94323725 C4.47080982,8.94323725 4.33303571,8.80266064 4.33303571,8.6289357 C4.33303571,8.45521075 4.47080982,8.31463415 4.64107143,8.31463415 L6.50982143,8.31463415 C6.68008304,8.31463415 6.81785714,8.45521075 6.81785714,8.6289357 C6.81785714,8.80266064 6.68008304,8.94323725 6.50982143,8.94323725 Z M6.50982143,6.74312639 L4.64107143,6.74312639 C4.47080982,6.74312639 4.33303571,6.60254978 4.33303571,6.42882483 C4.33303571,6.25509989 4.47080982,6.11452328 4.64107143,6.11452328 L6.50982143,6.11452328 C6.68008304,6.11452328 6.81785714,6.25509989 6.81785714,6.42882483 C6.81785714,6.60254978 6.68008304,6.74312639 6.50982143,6.74312639 Z M6.50982143,4.54301552 L4.64107143,4.54301552 C4.47080982,4.54301552 4.33303571,4.40243891 4.33303571,4.22871397 C4.33303571,4.05498902 4.47080982,3.91441242 4.64107143,3.91441242 L6.50982143,3.91441242 C6.68008304,3.91441242 6.81785714,4.05498902 6.81785714,4.22871397 C6.81785714,4.40243891 6.68008304,4.54301552 6.50982143,4.54301552 Z" id="Shape"></path>
            </g>
        </g>
    </g>
</svg>