<?xml version="1.0" encoding="UTF-8"?>
<svg width="174px" height="98px" viewBox="0 0 174 98" version="1.1" xmlns="http://www.w3.org/2000/svg" xmlns:xlink="http://www.w3.org/1999/xlink">
    <!-- Generator: Sketch 64 (93537) - https://sketch.com -->
    <title>Group 14</title>
    <desc>Created with Sketch.</desc>
    <defs>
        <polygon id="path-1" points="0.0101159717 0.141135135 36.93568 0.141135135 36.93568 41.873773 0.0101159717 41.873773"></polygon>
        <polygon id="path-3" points="0 0.123661091 64.9336634 0.123661091 64.9336634 50.9999629 0 50.9999629"></polygon>
        <polygon id="path-5" points="0.116568137 5.45454545e-05 36.9946858 5.45454545e-05 36.9946858 2 0.116568137 2"></polygon>
        <polygon id="path-7" points="0.140942268 5.45454545e-05 16.9656845 5.45454545e-05 16.9656845 2 0.140942268 2"></polygon>
    </defs>
    <g id="Page-1" stroke="none" stroke-width="1" fill="none" fill-rule="evenodd">
        <g id="1_Students-dashboard" transform="translate(-1003.000000, -162.000000)">
            <g id="Group-14" transform="translate(1003.000000, 162.000000)">
                <path d="M0,41.1218065 C6.02500479,30.8740709 13.1080859,29.8167076 21.2492434,37.9497167 C33.4609796,50.1492302 37.3714996,41.9717723 40.5203858,36.1147695 C43.6692721,30.2577666 47.7942089,-1.10170734 66.5636556,0.0298710386 C85.3331023,1.16144942 87.9510825,36.4925829 100.323913,37.9497167 C112.696744,39.4068505 114.716068,34.5951396 129.559599,31.5811584 C139.455286,29.5718376 151.633458,46.6448334 166.094114,82.8001458 L174,97.8304491 L0.207358444,98 L0,41.1218065 Z" id="Path-39" fill="#E8FE00" opacity="0.131859189"></path>
                <g id="Group-53" transform="translate(33.000000, 20.000000)">
                    <g id="Group-3" transform="translate(7.000000, 0.000000)">
                        <mask id="mask-2" fill="white">
                            <use xlink:href="#path-1"></use>
                        </mask>
                        <g id="Clip-2"></g>
                        <path d="M35.3782325,13.2432054 C35.3184218,13.1802054 38.6710529,15.4504757 34.539985,19.4234486 C34.1807617,19.6126378 37.4137714,21.6305297 36.8749364,25.9188811 C36.8151257,26.1080703 36.2762908,31.4053676 36.2762908,31.4053676 L35.1986209,36.9548541 L10.7714364,39.6666919 L0.23433932,41.873773 C0.23433932,41.873773 -1.1427432,37.2702324 2.92851408,32.4775027 C2.98832476,32.4143135 8.07726165,30.3332324 8.07726165,25.8558811 C8.01745097,26.1710703 7.35881505,19.1080703 10.2326015,17.0269892 C10.3524024,16.9639892 14.2440481,13.873773 14.2440481,13.873773 C14.2440481,13.873773 10.651815,14.5675297 9.3345432,11.0359351 C9.27473252,11.0359351 8.13725194,6.93696216 11.4300723,5.36025946 C11.5498733,5.42344865 14.2440481,3.84674595 16.0999752,6.05401622 C16.0999752,6.05401622 18.2851306,-0.220821622 25.2001791,0.157556757 C25.4695966,0.535935135 36.2462956,0.819718919 34.7195966,11.6035027 L35.3782325,13.2432054" id="Fill-1" fill="#C7692F" mask="url(#mask-2)"></path>
                    </g>
                    <g id="Group-6" transform="translate(0.000000, 26.000000)">
                        <mask id="mask-4" fill="white">
                            <use xlink:href="#path-3"></use>
                        </mask>
                        <g id="Clip-5"></g>
                        <path d="M25.9946352,0.123661091 L25.201269,3.832752 L12.7505648,5.43990109 C12.7505648,5.43990109 7.34970563,6.73808291 6.78484648,16.5054175 C6.70831127,16.4436611 0.421804225,44.8180211 0.421804225,44.8180211 C0.421804225,44.8180211 -0.737759155,49.3928138 0.788001408,50.9999629 C0.482959155,50.8764502 28.6189873,50.9999629 28.6189873,50.9999629 L63.0417056,50.4435993 L64.9336634,45.0654175 L52.116762,41.7272356 L53.7646493,10.3854175 C53.7646493,10.3854175 46.8697056,3.832752 44.4275366,4.82178109 C44.3654662,4.51262836 37.9570155,4.07996291 37.9570155,4.07996291 L38.1401141,3.33814473 C38.1401141,3.33814473 32.1590155,4.450872 25.9946352,0.123661091" id="Fill-4" fill="#F7C46E" mask="url(#mask-4)"></path>
                    </g>
                    <path d="M26.8552579,20.3214835 L26,26.5086499 C26,26.5086499 32.2307199,30.9539018 37.972878,29.8126288 C38.0339024,29.8126288 37.972878,22.7844201 37.972878,22.7844201 L28.3213097,19 L26.8552579,20.3214835 Z" id="Fill-7" fill="#EDBD98"></path>
                    <path d="M38,24.0115392 C38,24.0115392 33.4023614,28.3723964 26,26.5583959 L26.8565398,20.330388 L28.3247889,19 L38,24.0115392 Z" id="Fill-9" fill="#CE9976"></path>
                    <path d="M42.8787256,12.585256 C42.8787256,12.585256 43.1515929,16.0960675 42.8787256,17.224274 C42.0003982,20.8571401 36.7090623,29.2604822 27.86778,19.2929973 C27.6769637,19.2301833 23.3145216,20.7277509 21.1894005,17.4749656 C21.3164841,17.7884712 17.5306888,13.1063862 22.8430145,12.585256 C23.2675807,12.5436935 25.6287416,12.6153466 25.914966,14.8721356 C25.954465,15.1831964 27.1682475,15.9704396 27.1682475,15.9704396 L27.3590638,10.5791586 L30.9845734,7.00590933 L33.6560016,5 L38.6807671,8.82394097 L42.497093,11.7703671 L42.8787256,12.585256 Z" id="Fill-11" fill="#F2C8A5"></path>
                    <line x1="22" y1="46" x2="18" y2="64" id="Stroke-13" stroke="#FFFFFF" stroke-width="0.5"></line>
                    <line x1="35" y1="72" x2="34" y2="62" id="Stroke-15" stroke="#FFFFFF" stroke-width="0.5"></line>
                    <path d="M42.4250246,11.5027596 C42.8626321,11.2868345 44.3775684,5.37842359 39.5851608,2.37093549 C39.5130821,2.32082 31.2880414,-3.25354979 25.7653098,2.86780539 C25.8573797,2.76925114 22.5490962,7.9400888 24.7664788,11.2868345 C24.7664788,11.2868345 27.5175739,14.6402872 27.5786482,16.5033164 C27.7620546,16.9379611 28.618012,17 28.618012,17 L29.0458989,12.280388 C29.0458989,12.280388 29.4739693,10.7279258 30.9412201,10.6036617 C30.8799623,10.6657006 33.6310574,9.23750236 33.6923151,7.25020907 C33.5699831,7.25020907 35.9542655,11.4109123 40.3560176,11.1625705 C40.3560176,11.1625705 41.5901589,11.4392303 42.4250246,11.5027596" id="Fill-17" fill="#C7692F"></path>
                    <path d="M25,29 C25,29 27.1471079,34.6835838 30.8529735,34.9809771 C31.2059131,35.2783705 34.8235438,31.9903894 34.8235438,31.9903894 L38,34.2870593 L38,30.6192078" id="Stroke-19" stroke="#FFFFFF" stroke-width="0.5"></path>
                    <path d="M35.8782943,11.4491434 C35.8782943,11.4491434 33.8206391,10.0848703 32.0004056,12.1117503 C31.9739727,12.1117503 33.240222,13.6710866 35.561732,12.6576466 C35.4825914,12.6964722 36.3004302,12.3068135 35.8782943,11.4491434" id="Fill-21" fill="#A34C1C"></path>
                    <path d="M39.2439944,12.4151515 C39.2439944,12.4151515 38.414136,11.1782974 39.8152974,11.0021495 C39.9760783,10.9627668 42.4542273,11.4706837 42.9439156,12.0225183 C43.0423429,12.037794 43.1241208,13.0617431 42.1498045,12.9970601 C42.0461538,12.9719984 40.0328822,12.852657 39.2439944,12.4151515" id="Fill-23" fill="#A34C1C"></path>
                    <path d="M57,26.0262282 C57,26.0262282 52.2868624,22.7592316 50.309718,27.883426 L44,68.1227732 C44,68.1227732 44.1458449,70.8465395 50.4999124,69.7322208" id="Fill-25" fill="#A2D7FC"></path>
                    <path d="M34,19 C34,19 35.8713242,20.4110108 37,20.1702324 C36.9406523,20.1702324 36.8813046,21.0649946 35.5000891,20.9962302 C35.3366601,20.9272594 34.4157904,20.6175102 34,19" id="Fill-27" fill="#FFFFFF"></path>
                    <path d="M51.1910416,69 C49.9859687,69 49,67.9820348 49,66.737436 L55.7557115,25.262564 C55.7557115,24.0181538 56.7416803,23 57.9467531,23 L118.808958,23 C120.014214,23 121,24.0181538 121,25.262564 L113.696528,66.737436 C113.696528,67.9820348 112.710742,69 111.505486,69 L51.1910416,69 Z" id="Fill-29" fill="#C1E1FB"></path>
                    <path d="M111.505486,69 L51.1910416,69 C49.9859687,69 49,67.9820348 49,66.737436 L55.7557115,25.262564 C55.7557115,24.0181538 56.7416803,23 57.9467531,23 L118.808958,23 C120.014214,23 121,24.0181538 121,25.262564 L113.696528,66.737436 C113.696528,67.9820348 112.710742,69 111.505486,69 Z" id="Stroke-31" stroke="#FFFFFF"></path>
                    <g id="Group-35" transform="translate(45.000000, 75.000000)">
                        <mask id="mask-6" fill="white">
                            <use xlink:href="#path-5"></use>
                        </mask>
                        <g id="Clip-34"></g>
                        <path d="M35.9971368,2.00005455 L1.11411716,2.00005455 C0.565283824,2.00005455 0.116568137,1.54987273 0.116568137,1.00005455 C0.116568137,0.450054545 0.565283824,5.45454545e-05 1.11411716,5.45454545e-05 L35.9971368,5.45454545e-05 C36.5457887,5.45454545e-05 36.9946858,0.450054545 36.9946858,1.00005455 C36.9946858,1.54987273 36.5457887,2.00005455 35.9971368,2.00005455" id="Fill-33" fill="#E6E6E6" mask="url(#mask-6)"></path>
                    </g>
                    <g id="Group-38" transform="translate(30.000000, 75.000000)">
                        <mask id="mask-8" fill="white">
                            <use xlink:href="#path-7"></use>
                        </mask>
                        <g id="Clip-37"></g>
                        <path d="M16.001767,2.00005455 L1.10485979,2.00005455 C0.574705155,2.00005455 0.140942268,1.54987273 0.140942268,1.00005455 C0.140942268,0.450054545 0.574705155,5.45454545e-05 1.10485979,5.45454545e-05 L16.001767,5.45454545e-05 C16.5319216,5.45454545e-05 16.9656845,0.450054545 16.9656845,1.00005455 C16.9656845,1.54987273 16.5319216,2.00005455 16.001767,2.00005455" id="Fill-36" fill="#FFFFFF" mask="url(#mask-8)"></path>
                    </g>
                    <polyline id="Stroke-39" stroke="#FFFFFF" stroke-width="0.5" points="41 71 39.829628 61 11 64.0107527"></polyline>
                    <path d="M56.6720201,63.9032258 L46.6667191,61 L41,61 L42.1967402,71 L56.6720201,66.3683871 C56.6720201,66.3683871 59.6599749,64.7701075 56.6720201,63.9032258" id="Fill-41" fill="#EDBD98"></path>
                    <path d="M37,69.5 C37,69.7760338 36.7761509,70 36.4999245,70 C36.2238491,70 36,69.7760338 36,69.5 C36,69.2239662 36.2238491,69 36.4999245,69 C36.7761509,69 37,69.2239662 37,69.5" id="Fill-43" fill="#FFFFFF"></path>
                    <path d="M63,74.9767442 L64.2560386,71 C64.2560386,71 70.1980676,72.3255116 73,74.9767442 C73,75.0290698 63,74.9767442 63,74.9767442" id="Fill-45" fill="#EDBD98"></path>
                    <path d="M81.9712711,77 L79.2023126,65.6167332 C78.3042289,61.9245353 80.4815463,58.141621 84.0407759,57.2098488 C87.6001826,56.2782602 91.2472202,58.5369906 92.1453038,62.2290048 L96,77" id="Fill-47" fill="#FAFDFF"></path>
                    <line x1="34" y1="34" x2="35" y2="63" id="Stroke-49" stroke="#FFFFFF" stroke-width="0.5"></line>
                    <line x1="36" y1="34" x2="37" y2="63" id="Stroke-51" stroke="#FFFFFF" stroke-width="0.5"></line>
                </g>
            </g>
        </g>
    </g>
</svg>