<?xml version="1.0" encoding="UTF-8"?>
<svg width="106px" height="113px" viewBox="0 0 106 113" version="1.1" xmlns="http://www.w3.org/2000/svg" xmlns:xlink="http://www.w3.org/1999/xlink">
    <!-- Generator: Sketch 64 (93537) - https://sketch.com -->
    <title>Group 13</title>
    <desc>Created with Sketch.</desc>
    <defs>
        <polygon id="path-1" points="0 0.2042 89.943 0.2042 89.943 102 0 102"></polygon>
        <polygon id="path-3" points="0.3846 0.5334 40.284 0.5334 40.284 40.4314 0.3846 40.4314"></polygon>
    </defs>
    <g id="Page-1" stroke="none" stroke-width="1" fill="none" fill-rule="evenodd">
        <g id="ADD-ICONS" transform="translate(-297.000000, -292.000000)">
            <g id="Group-13" transform="translate(297.000000, 291.000000)">
                <path d="M28.2154,41.8054 C26.8814,41.8054 25.7974,42.8914 25.7974,44.2234 C25.7974,45.5574 26.8814,46.6434 28.2154,46.6434 L56.7534,46.6434 L56.7534,41.8054 L28.2154,41.8054 Z M25.7974,48.9614 L25.7974,80.0154 C25.7974,81.3494 26.8814,82.4354 28.2154,82.4354 L60.6234,82.4354 L60.6234,49.5454 L28.2154,49.5454 C27.3454,49.5454 26.5234,49.3374 25.7974,48.9614 L25.7974,48.9614 Z M62.0734,85.3374 L28.2154,85.3374 C25.2814,85.3374 22.8954,82.9514 22.8954,80.0154 L22.8954,44.2234 C22.8954,41.2894 25.2814,38.9034 28.2154,38.9034 L58.2054,38.9034 C59.0054,38.9034 59.6554,39.5534 59.6554,40.3534 L59.6554,46.6434 L62.0734,46.6434 C62.8754,46.6434 63.5254,47.2914 63.5254,48.0954 L63.5254,83.8874 C63.5254,84.6874 62.8754,85.3374 62.0734,85.3374 L62.0734,85.3374 Z" id="Fill-1" fill="#161948"></path>
                <g id="Group-5" transform="translate(0.000000, 11.467000)">
                    <mask id="mask-2" fill="white">
                        <use xlink:href="#path-1"></use>
                    </mask>
                    <g id="Clip-4"></g>
                    <path d="M85.401,95.8442 C85.401,97.0342 84.429,98.0082 83.237,98.0082 L6.705,98.0082 C5.515,98.0082 4.541,97.0342 4.541,95.8442 L4.541,63.1622 L4.541,6.3582 C4.541,5.1682 5.515,4.1962 6.705,4.1962 L66.255,4.1962 C66.667,2.7862 67.227,1.4562 67.937,0.2042 L5.485,0.2042 C2.469,0.2042 -0.001,2.6722 -0.001,5.6882 L-0.001,64.1902 L-0.001,96.5142 C-0.001,99.5322 2.469,102.0002 5.485,102.0002 L84.457,102.0002 C87.473,102.0002 89.943,99.5322 89.943,96.5142 L89.943,27.5202 C88.489,27.9682 86.979,28.2582 85.401,28.3442 L85.401,95.8442 Z" id="Fill-3" fill="#161948" mask="url(#mask-2)"></path>
                </g>
                <path d="M83.697,26.9226 L83.697,14.9766 C83.697,14.0746 84.435,13.3386 85.335,13.3386 C86.237,13.3386 86.973,14.0746 86.973,14.9766 L86.973,26.9226 C86.973,27.8226 86.237,28.5606 85.335,28.5606 C84.435,28.5606 83.697,27.8226 83.697,26.9226" id="Fill-6" fill="#161948"></path>
                <path d="M79.3278,19.4422 L91.2718,19.1822 C92.1718,19.1622 92.9238,19.8842 92.9438,20.7842 C92.9638,21.6842 92.2438,22.4382 91.3418,22.4582 L79.3978,22.7182 C78.4978,22.7362 77.7438,22.0162 77.7258,21.1142 C77.7058,20.2142 78.4258,19.4622 79.3278,19.4422" id="Fill-8" fill="#161948"></path>
                <g id="Group-12" transform="translate(65.000000, 0.467000)">
                    <mask id="mask-4" fill="white">
                        <use xlink:href="#path-3"></use>
                    </mask>
                    <g id="Clip-11"></g>
                    <path d="M20.3346,37.6274 C10.8666,37.6274 3.1906,29.9514 3.1906,20.4834 C3.1906,11.0134 10.8666,3.3374 20.3346,3.3374 C29.8026,3.3374 37.4786,11.0134 37.4786,20.4834 C37.4786,29.9514 29.8026,37.6274 20.3346,37.6274 M20.3346,0.5334 C9.3166,0.5334 0.3846,9.4654 0.3846,20.4834 C0.3846,31.5014 9.3166,40.4314 20.3346,40.4314 C31.3526,40.4314 40.2846,31.5014 40.2846,20.4834 C40.2846,9.4654 31.3526,0.5334 20.3346,0.5334" id="Fill-10" fill="#161948" mask="url(#mask-4)"></path>
                </g>
            </g>
        </g>
    </g>
</svg>