<?xml version="1.0" encoding="UTF-8"?>
<svg width="106px" height="113px" viewBox="0 0 106 113" version="1.1" xmlns="http://www.w3.org/2000/svg" xmlns:xlink="http://www.w3.org/1999/xlink">
    <!-- Generator: Sketch 64 (93537) - https://sketch.com -->
    <title>Group 19</title>
    <desc>Created with Sketch.</desc>
    <defs>
        <polygon id="path-1" points="0 0.2022 89.943 0.2022 89.943 102 0 102"></polygon>
        <polygon id="path-3" points="0.3846 0.5334 40.284 0.5334 40.284 40.4314 0.3846 40.4314"></polygon>
    </defs>
    <g id="Page-1" stroke="none" stroke-width="1" fill="none" fill-rule="evenodd">
        <g id="ADD-ICONS" transform="translate(-159.000000, -150.000000)">
            <g id="Group-19" transform="translate(159.000000, 149.000000)">
                <line x1="87.6198" y1="81.3942" x2="4.9618" y2="81.3942" id="Stroke-1" stroke="#161948" stroke-width="1.5"></line>
                <g id="Group-18" transform="translate(0.000000, 0.467000)">
                    <path d="M57.3112,56.2896 L38.3832,45.3616 C37.7932,45.0216 37.0572,45.4476 37.0572,46.1276 L37.0572,67.9836 C37.0572,68.6636 37.7932,69.0896 38.3832,68.7476 L57.3112,57.8216 C57.8992,57.4816 57.8992,56.6296 57.3112,56.2896" id="Fill-2" fill="#161948"></path>
                    <path d="M64.0534,94.2046 C64.0534,96.7366 62.0014,98.7886 59.4694,98.7886 C56.9394,98.7886 54.8874,96.7366 54.8874,94.2046 C54.8874,91.6726 56.9394,89.6206 59.4694,89.6206 C62.0014,89.6206 64.0534,91.6726 64.0534,94.2046" id="Fill-4" fill="#161948"></path>
                    <path d="M77.8532,94.9908 L13.5152,94.9908 C13.3212,94.9908 13.1612,94.8308 13.1612,94.6368 L13.1612,93.7728 C13.1612,93.5768 13.3212,93.4168 13.5152,93.4168 L77.8532,93.4168 C78.0472,93.4168 78.2072,93.5768 78.2072,93.7728 L78.2072,94.6368 C78.2072,94.8308 78.0472,94.9908 77.8532,94.9908" id="Fill-6" fill="#161948"></path>
                    <path d="M83.697,26.4556 L83.697,14.5096 C83.697,13.6096 84.435,12.8716 85.335,12.8716 C86.237,12.8716 86.973,13.6096 86.973,14.5096 L86.973,26.4556 C86.973,27.3576 86.237,28.0936 85.335,28.0936 C84.435,28.0936 83.697,27.3576 83.697,26.4556" id="Fill-8" fill="#161948"></path>
                    <path d="M79.3278,18.9752 L91.2718,18.7152 C92.1718,18.6952 92.9238,19.4172 92.9438,20.3172 C92.9638,21.2192 92.2438,21.9712 91.3418,21.9912 L79.3978,22.2492 C78.4978,22.2692 77.7438,21.5492 77.7258,20.6472 C77.7058,19.7472 78.4258,18.9952 79.3278,18.9752" id="Fill-10" fill="#161948"></path>
                    <g id="Group-14" transform="translate(0.000000, 11.000000)">
                        <mask id="mask-2" fill="white">
                            <use xlink:href="#path-1"></use>
                        </mask>
                        <g id="Clip-13"></g>
                        <path d="M85.401,95.8442 C85.401,97.0342 84.429,98.0082 83.237,98.0082 L6.705,98.0082 C5.515,98.0082 4.541,97.0342 4.541,95.8442 L4.541,63.1622 L4.541,6.3582 C4.541,5.1682 5.515,4.1942 6.705,4.1942 L66.255,4.1942 C66.667,2.7862 67.227,1.4562 67.937,0.2022 L5.485,0.2022 C2.469,0.2022 -0.001,2.6722 -0.001,5.6882 L-0.001,64.1882 L-0.001,96.5122 C-0.001,99.5302 2.469,102.0002 5.485,102.0002 L84.457,102.0002 C87.473,102.0002 89.943,99.5302 89.943,96.5122 L89.943,27.5202 C88.489,27.9682 86.979,28.2582 85.401,28.3442 L85.401,95.8442 Z" id="Fill-12" fill="#161948" mask="url(#mask-2)"></path>
                    </g>
                    <g id="Group-17" transform="translate(65.000000, 0.000000)">
                        <mask id="mask-4" fill="white">
                            <use xlink:href="#path-3"></use>
                        </mask>
                        <g id="Clip-16"></g>
                        <path d="M20.3346,37.6274 C10.8666,37.6274 3.1906,29.9514 3.1906,20.4834 C3.1906,11.0134 10.8666,3.3374 20.3346,3.3374 C29.8026,3.3374 37.4786,11.0134 37.4786,20.4834 C37.4786,29.9514 29.8026,37.6274 20.3346,37.6274 M20.3346,0.5334 C9.3166,0.5334 0.3846,9.4634 0.3846,20.4834 C0.3846,31.5014 9.3166,40.4314 20.3346,40.4314 C31.3526,40.4314 40.2846,31.5014 40.2846,20.4834 C40.2846,9.4634 31.3526,0.5334 20.3346,0.5334" id="Fill-15" fill="#161948" mask="url(#mask-4)"></path>
                    </g>
                </g>
            </g>
        </g>
    </g>
</svg>