<?xml version="1.0" encoding="UTF-8"?>
<svg width="106px" height="113px" viewBox="0 0 106 113" version="1.1" xmlns="http://www.w3.org/2000/svg" xmlns:xlink="http://www.w3.org/1999/xlink">
    <!-- Generator: Sketch 64 (93537) - https://sketch.com -->
    <title>Group 16</title>
    <desc>Created with Sketch.</desc>
    <defs>
        <polygon id="path-1" points="0.0012 0.203 89.9432 0.203 89.9432 102 0.0012 102"></polygon>
    </defs>
    <g id="Page-1" stroke="none" stroke-width="1" fill="none" fill-rule="evenodd">
        <g id="ADD-ICONS" transform="translate(-159.000000, -293.000000)">
            <g id="Group-16" transform="translate(159.000000, 293.000000)">
                <g id="Group-3" transform="translate(0.000000, 10.327600)">
                    <mask id="mask-2" fill="white">
                        <use xlink:href="#path-1"></use>
                    </mask>
                    <g id="Clip-2"></g>
                    <path d="M85.4012,95.845 C85.4012,97.035 84.4292,98.009 83.2372,98.009 L6.7032,98.009 C5.5152,98.009 4.5412,97.035 4.5412,95.845 L4.5412,63.163 L4.5412,6.359 C4.5412,5.169 5.5152,4.195 6.7032,4.195 L66.2552,4.195 C66.6672,2.787 67.2272,1.455 67.9372,0.203 L5.4872,0.203 C2.4692,0.203 0.0012,2.671 0.0012,5.689 L0.0012,64.189 L0.0012,96.513 C0.0012,99.531 2.4692,102.001 5.4872,102.001 L84.4552,102.001 C87.4732,102.001 89.9432,99.531 89.9432,96.513 L89.9432,27.521 C88.4912,27.969 86.9792,28.259 85.4012,28.345 L85.4012,95.845 Z" id="Fill-1" fill="#161948" mask="url(#mask-2)"></path>
                </g>
                <path d="M45.0048,66.6336 C46.0448,66.6336 46.8848,67.4756 46.8848,68.5136 C46.8848,69.5536 46.0448,70.3956 45.0048,70.3956 C43.9648,70.3956 43.1248,69.5536 43.1248,68.5136 C43.1248,67.4756 43.9648,66.6336 45.0048,66.6336" id="Fill-4" fill="#161948"></path>
                <path d="M45.0048,75.5486 C36.0248,75.5486 28.7568,68.2806 28.7568,59.2986 C28.7568,50.3186 36.0248,43.0506 45.0048,43.0506 C53.9848,43.0506 61.2528,50.3186 61.2528,59.2986 C61.2528,68.2806 53.9868,75.5486 45.0048,75.5486 M45.0048,40.0426 C34.3628,40.0426 25.7468,48.6546 25.7468,59.2986 C25.7468,69.9426 34.3608,78.5566 45.0048,78.5566 C55.6468,78.5566 64.2628,69.9446 64.2628,59.2986 C64.2628,48.6566 55.6488,40.0426 45.0048,40.0426" id="Fill-6" fill="#161948"></path>
                <path d="M45.0048,49.7078 C41.6868,49.7078 38.9868,52.4078 38.9868,55.7258 C38.9868,56.5578 39.6608,57.2298 40.4908,57.2298 C41.3228,57.2298 41.9948,56.5578 41.9948,55.7258 C41.9948,54.0678 43.3468,52.7158 45.0048,52.7158 C46.6648,52.7158 48.0148,54.0678 48.0148,55.7258 C48.0148,57.3858 46.6648,58.7358 45.0048,58.7358 C44.1748,58.7358 43.5008,59.4098 43.5008,60.2398 L43.5008,63.9998 C43.5008,64.8318 44.1748,65.5058 45.0048,65.5058 C45.8368,65.5058 46.5088,64.8318 46.5088,63.9998 L46.5088,61.5538 C49.1028,60.8838 51.0228,58.5258 51.0228,55.7258 C51.0228,52.4078 48.3228,49.7078 45.0048,49.7078" id="Fill-8" fill="#161948"></path>
                <path d="M83.6668,25.9226 L83.6668,13.9766 C83.6668,13.0766 84.4048,12.3386 85.3048,12.3386 C86.2068,12.3386 86.9448,13.0766 86.9448,13.9766 L86.9448,25.9226 C86.9448,26.8246 86.2068,27.5606 85.3048,27.5606 C84.4048,27.5606 83.6668,26.8246 83.6668,25.9226" id="Fill-10" fill="#161948"></path>
                <path d="M79.2978,18.4422 L91.2418,18.1822 C92.1438,18.1622 92.8958,18.8842 92.9158,19.7842 C92.9338,20.6862 92.2138,21.4382 91.3138,21.4582 L79.3698,21.7162 C78.4698,21.7362 77.7158,21.0162 77.6958,20.1142 C77.6758,19.2142 78.3978,18.4622 79.2978,18.4422" id="Fill-12" fill="#161948"></path>
                <path d="M85.3056,37.0946 C75.8376,37.0946 68.1616,29.4186 68.1616,19.9506 C68.1616,10.4806 75.8376,2.8046 85.3056,2.8046 C94.7736,2.8046 102.4496,10.4806 102.4496,19.9506 C102.4496,29.4186 94.7736,37.0946 85.3056,37.0946 M85.3056,0.0006 C74.2876,0.0006 65.3556,8.9306 65.3556,19.9506 C65.3556,30.9686 74.2876,39.8986 85.3056,39.8986 C96.3236,39.8986 105.2556,30.9686 105.2556,19.9506 C105.2556,8.9306 96.3236,0.0006 85.3056,0.0006" id="Fill-14" fill="#161948"></path>
            </g>
        </g>
    </g>
</svg>