<?xml version="1.0" encoding="UTF-8"?>
<svg width="104px" height="113px" viewBox="0 0 104 113" version="1.1" xmlns="http://www.w3.org/2000/svg" xmlns:xlink="http://www.w3.org/1999/xlink">
    <!-- Generator: Sketch 64 (93537) - https://sketch.com -->
    <title>Group 13</title>
    <desc>Created with Sketch.</desc>
    <defs>
        <polygon id="path-1" points="0.0872 0.5334 39.986 0.5334 39.986 40.4314 0.0872 40.4314"></polygon>
    </defs>
    <g id="Page-1" stroke="none" stroke-width="1" fill="none" fill-rule="evenodd">
        <g id="ADD-ICONS" transform="translate(-255.000000, -434.000000)">
            <g id="Group-13" transform="translate(255.000000, 433.000000)">
                <path d="M60.0566,71.8406 L60.0566,81.1746 C60.0566,81.9206 59.4486,82.5286 58.7026,82.5286 L31.6126,82.5286 C30.8646,82.5286 30.2586,81.9206 30.2586,81.1746 L30.2586,43.0666 C30.2586,42.3206 30.8646,41.7146 31.6126,41.7146 L51.9306,41.7146 L51.9306,48.4846 C51.9306,49.2326 52.5366,49.8406 53.2846,49.8406 L60.0566,49.8406 L60.0566,60.3446 L60.0566,71.8406 Z M54.6386,41.7146 C54.8946,41.7146 55.3886,41.6686 55.8306,42.1106 L59.6606,45.9406 C60.0906,46.3706 60.0566,46.8426 60.0566,47.1326 L54.6386,47.1326 L54.6386,41.7146 Z M62.7646,57.6326 L62.7646,46.8986 C62.7646,45.8126 62.3446,44.7926 61.5766,44.0266 L57.7466,40.1946 C56.9786,39.4266 55.9566,39.0046 54.8706,39.0046 L31.6126,39.0046 C29.3726,39.0046 27.5486,40.8266 27.5486,43.0666 L27.5486,81.1746 C27.5486,83.4146 29.3726,85.2366 31.6126,85.2366 L58.7026,85.2366 C60.9426,85.2366 62.7646,83.4146 62.7646,81.1746 L62.7646,69.1326 L62.7646,57.6326 Z" id="Fill-1" fill="#161948"></path>
                <g id="Group-5" transform="translate(0.000000, 11.467000)" fill="#161948">
                    <path d="M85.4004,95.8442 C85.4004,97.0342 84.4284,98.0082 83.2384,98.0082 L6.7044,98.0082 C5.5144,98.0082 4.5404,97.0342 4.5404,95.8442 L4.5404,63.1622 L4.5404,6.3582 C4.5404,5.1682 5.5144,4.1962 6.7044,4.1962 L66.2564,4.1962 C66.6664,2.7862 67.2264,1.4562 67.9364,0.2042 L5.4864,0.2042 C2.4684,0.2042 0.0004,2.6722 0.0004,5.6882 L0.0004,64.1902 L0.0004,96.5142 C0.0004,99.5322 2.4684,102.0002 5.4864,102.0002 L84.4564,102.0002 C87.4744,102.0002 89.9424,99.5322 89.9424,96.5142 L89.9424,27.5202 C88.4904,27.9682 86.9804,28.2582 85.4004,28.3442 L85.4004,95.8442 Z" id="Fill-3"></path>
                </g>
                <path d="M82.3984,26.9226 L82.3984,14.9766 C82.3984,14.0746 83.1364,13.3386 84.0364,13.3386 C84.9384,13.3386 85.6764,14.0746 85.6764,14.9766 L85.6764,26.9226 C85.6764,27.8226 84.9384,28.5606 84.0364,28.5606 C83.1364,28.5606 82.3984,27.8226 82.3984,26.9226" id="Fill-6" fill="#161948"></path>
                <path d="M78.0294,19.4422 L89.9734,19.1822 C90.8754,19.1622 91.6274,19.8842 91.6474,20.7842 C91.6654,21.6842 90.9454,22.4382 90.0454,22.4582 L78.1014,22.7182 C77.2014,22.7362 76.4474,22.0162 76.4274,21.1142 C76.4074,20.2142 77.1294,19.4622 78.0294,19.4422" id="Fill-8" fill="#161948"></path>
                <g id="Group-12" transform="translate(64.000000, 0.467000)">
                    <mask id="mask-2" fill="white">
                        <use xlink:href="#path-1"></use>
                    </mask>
                    <g id="Clip-11"></g>
                    <path d="M20.0372,37.6274 C10.5692,37.6274 2.8932,29.9514 2.8932,20.4834 C2.8932,11.0134 10.5692,3.3374 20.0372,3.3374 C29.5052,3.3374 37.1812,11.0134 37.1812,20.4834 C37.1812,29.9514 29.5052,37.6274 20.0372,37.6274 M20.0372,0.5334 C9.0192,0.5334 0.0872,9.4654 0.0872,20.4834 C0.0872,31.5014 9.0192,40.4314 20.0372,40.4314 C31.0552,40.4314 39.9872,31.5014 39.9872,20.4834 C39.9872,9.4654 31.0552,0.5334 20.0372,0.5334" id="Fill-10" fill="#161948" mask="url(#mask-2)"></path>
                </g>
            </g>
        </g>
    </g>
</svg>