<?xml version="1.0"?>
<svg xmlns="http://www.w3.org/2000/svg" id="Capa_1" enable-background="new 0 0 512 512" height="512px" viewBox="0 0 512 512" width="512px" class="hovered-paths"><g><path d="m376 120v302h-30v-302c0-49.63-40.37-90-90-90s-90 40.37-90 90v302c0 33.08 26.92 60 60 60 10.92 0 21.17-2.93 30-8.05 17.92-10.4 30-29.79 30-51.95v-242c0-16.54-13.46-30-30-30s-30 13.46-30 30v242h-30v-242c0-33.08 26.92-60 60-60s60 26.92 60 60v242c0 39.12-25.08 72.48-60 84.85-9.39 3.34-19.48 5.15-30 5.15-49.63 0-90-40.37-90-90v-302c0-66.17 53.83-120 120-120s120 53.83 120 120z" fill="#ffda2d" data-original="#FFDA2D" class="active-path" style="fill:#050C5D" data-old_color="#ffda2d"/><g fill="#fdbf00"><path d="m316 180v242c0 39.12-25.08 72.48-60 84.85v-32.9c17.92-10.4 30-29.79 30-51.95v-242c0-16.54-13.46-30-30-30v-30c33.08 0 60 26.92 60 60z" data-original="#FDBF00" class="hovered-path" style="fill:#042E9E" data-old_color="#FDBF00"/><path d="m376 120v302h-30v-302c0-49.63-40.37-90-90-90v-30c66.17 0 120 53.83 120 120z" data-original="#FDBF00" class="hovered-path" style="fill:#042E9E" data-old_color="#FDBF00"/></g></g> </svg>
