<?xml version="1.0" encoding="UTF-8"?>
<svg width="300px" height="767px" viewBox="0 0 300 767" version="1.1" xmlns="http://www.w3.org/2000/svg" xmlns:xlink="http://www.w3.org/1999/xlink">
    <!-- Generator: Sketch 62 (91390) - https://sketch.com -->
    <title>Group 25</title>
    <desc>Created with Sketch.</desc>
    <defs>
        <linearGradient x1="45.7828646%" y1="3.68462081%" x2="45.7828646%" y2="47.958394%" id="linearGradient-1">
            <stop stop-color="#FDFFFF" offset="0%"></stop>
            <stop stop-color="#F4F9FF" offset="100%"></stop>
        </linearGradient>
        <polygon id="path-2" points="0.199335548 1.14869536e-13 299.202658 1.14869536e-13 299.202658 767.0013 0.199335548 767.0013"></polygon>
        <linearGradient x1="50%" y1="0%" x2="50%" y2="100%" id="linearGradient-4">
            <stop stop-color="#EBF4FF" offset="0%"></stop>
            <stop stop-color="#88BAFF" offset="100%"></stop>
        </linearGradient>
        <path d="M74.2166774,355.403944 C105.923241,313.845534 141.751657,293.066329 181.701927,293.066329 C221.652196,293.066329 243.688258,274.691442 247.810111,237.941667 C257.426117,203.538407 284.95757,188.855468 330.40447,193.892851 C329.196896,195.678564 359.27664,186.832648 368.136519,135.333274 C376.996398,83.8338994 389.196612,60.2684002 456.59783,72.0511498 C523.999048,83.8338994 525.384124,72.3761068 538.654364,34.9721239 C551.924604,-2.43185896 599.557426,-14.6036952 656.855893,22.2727524 C695.05487,46.8570509 703.541182,173.91772 682.314828,403.454761 L0,407.469441 L74.2166774,355.403944 Z" id="path-5"></path>
        <linearGradient x1="50%" y1="0%" x2="50%" y2="54.4953399%" id="linearGradient-7">
            <stop stop-color="#ECF5FF" offset="0%"></stop>
            <stop stop-color="#EBF4FF" offset="100%"></stop>
        </linearGradient>
        <linearGradient x1="50%" y1="0%" x2="50%" y2="100%" id="linearGradient-8">
            <stop stop-color="#60A4F8" offset="0%"></stop>
            <stop stop-color="#C2DDFF" offset="100%"></stop>
        </linearGradient>
        <linearGradient x1="50%" y1="0%" x2="50%" y2="100%" id="linearGradient-9">
            <stop stop-color="#250CA7" offset="0%"></stop>
            <stop stop-color="#5A89DF" offset="100%"></stop>
        </linearGradient>
        <linearGradient x1="50%" y1="0%" x2="50%" y2="100%" id="linearGradient-10">
            <stop stop-color="#C9E6FF" offset="0%"></stop>
            <stop stop-color="#FFFFFF" offset="100%"></stop>
        </linearGradient>
        <linearGradient x1="50%" y1="0%" x2="50%" y2="100%" id="linearGradient-11">
            <stop stop-color="#250CA7" offset="0%"></stop>
            <stop stop-color="#5A89DF" offset="100%"></stop>
        </linearGradient>
        <path d="M0.593257001,14.4662824 C-0.341784185,23.1462556 5.88208371,26.4945074 19.2648607,24.5110377 C32.6476377,22.527568 37.3712873,28.7161005 33.4358097,43.0766352 C27.1089027,53.3094431 31.5830287,60.7671388 46.8581875,65.4497224 C62.1333464,70.1323061 68.7935219,81.1530615 66.8387141,98.5119888 L197.501661,61.4755093 C189.791701,39.8107906 182.389562,27.4893 175.295245,24.5110377 C164.653769,20.0436442 158.174293,14.1964347 143.649017,21.5358332 C133.9655,26.4287655 128.223303,21.7051569 126.422426,7.36500726 C115.065828,2.45500242 98.1189754,0 75.5818684,0 C53.0447614,0 28.0485576,4.82209412 0.593257001,14.4662824 Z" id="path-12"></path>
        <polygon id="path-14" points="0.0003 0.66613264 68.6438057 0.66613264 68.6438057 41.945084 0.0003 41.945084"></polygon>
        <linearGradient x1="50%" y1="37.8061655%" x2="50%" y2="100%" id="linearGradient-16">
            <stop stop-color="#EFEFEF" offset="0%"></stop>
            <stop stop-color="#FFFFFF" offset="100%"></stop>
        </linearGradient>
        <polygon id="path-17" points="0.0003 0.66613264 63.3523153 0.66613264 63.3523153 33.6229202 0.0003 33.6229202"></polygon>
        <linearGradient x1="50%" y1="0%" x2="50%" y2="100%" id="linearGradient-19">
            <stop stop-color="#EFEFEF" offset="0%"></stop>
            <stop stop-color="#FFFFFF" offset="48.1075802%"></stop>
            <stop stop-color="#DBDADA" offset="98.3583193%"></stop>
        </linearGradient>
        <path d="M30.898,0.66613264 C30.898,0.66613264 24.399,24.3013576 24.898,23.8020078 L24.898,23.8020078 C19.065,35.4538362 0.232,33.6232198 0.232,33.6232198 L0.232,33.6232198 L0.232,41.9453836 C0.232,41.9453836 45.232,41.4460338 45.398,41.9453836 L45.398,41.9453836 C83.732,35.288052 63.584,0.66613264 63.584,0.66613264 L63.584,0.66613264 L30.898,0.66613264 Z" id="path-20"></path>
        <polygon id="path-22" points="0 0.291420546 108.0466 0.291420546 108.0466 63.4381669 0 63.4381669"></polygon>
        <path d="M0.232,2.53769571 C0.232,3.71016905 1.183,4.65993238 2.357,4.65993238 L2.357,4.65993238 C3.531,4.65993238 4.482,3.71016905 4.482,2.53769571 L4.482,2.53769571 C4.482,1.36622107 3.531,0.416457737 2.357,0.416457737 L2.357,0.416457737 C1.183,0.416457737 0.232,1.36622107 0.232,2.53769571" id="path-24"></path>
        <path d="M0.232,2.53869441 C0.232,3.71116775 1.183,4.66093108 2.357,4.66093108 L2.357,4.66093108 C3.531,4.66093108 4.482,3.71116775 4.482,2.53869441 L4.482,2.53869441 C4.482,1.36622107 3.531,0.416457737 2.357,0.416457737 L2.357,0.416457737 C1.183,0.416457737 0.232,1.36622107 0.232,2.53869441" id="path-26"></path>
        <linearGradient x1="50%" y1="0%" x2="50%" y2="100%" id="linearGradient-28">
            <stop stop-color="#FF9600" offset="0%"></stop>
            <stop stop-color="#FE5D00" offset="100%"></stop>
        </linearGradient>
        <polygon id="path-29" points="1.13686838e-13 1.33053516e-15 299.003322 1.33053516e-15 299.003322 767.0013 1.13686838e-13 767.0013"></polygon>
        <linearGradient x1="50%" y1="0%" x2="50%" y2="100%" id="linearGradient-31">
            <stop stop-color="#250CA7" offset="0%"></stop>
            <stop stop-color="#5A89DF" offset="100%"></stop>
        </linearGradient>
        <polygon id="path-32" points="1.13686838e-13 1.33053516e-15 299.003322 1.33053516e-15 299.003322 767.0013 1.13686838e-13 767.0013"></polygon>
    </defs>
    <g id="Page-1" stroke="none" stroke-width="1" fill="none" fill-rule="evenodd">
        <g id="Group-25" transform="translate(-0.000000, 0.000000)">
            <mask id="mask-3" fill="white">
                <use xlink:href="#path-2"></use>
            </mask>
            <use id="Mask" fill="url(#linearGradient-1)" xlink:href="#path-2"></use>
            <g id="Group-5" mask="url(#mask-3)">
                <g transform="translate(-90.000000, 277.638492)">
                    <mask id="mask-6" fill="white">
                        <use xlink:href="#path-5"></use>
                    </mask>
                    <use id="Mask" stroke="none" fill="url(#linearGradient-4)" fill-rule="evenodd" opacity="0.513230097" transform="translate(346.843854, 203.734720) scale(-1, 1) translate(-346.843854, -203.734720) " xlink:href="#path-5"></use>
                    <path d="M80.2316959,88.8842653 C108.742381,78.0936281 127.911824,85.2873862 137.740024,110.46554 C152.482326,148.23277 189.86711,146.40117 219.998671,131.828349 C250.130233,117.255527 307.128441,146.40117 324.950739,207.729519 C336.83227,248.615085 381.92846,287.231469 460.239306,323.578674 C385.710977,264.988296 324.823922,233.362809 277.57814,228.702211 C206.709468,221.711313 222.603016,186.050405 198.290205,169.706762 C173.977394,153.363119 164.675071,190.892068 123.78465,155.06567 C96.5243698,131.181404 82.0067184,109.120936 80.2316959,88.8842653 Z" id="Path-51" stroke="none" fill="url(#linearGradient-7)" fill-rule="evenodd"></path>
                    <path d="M90.8037101,208.990364 C109.311869,208.241317 125.966873,214.105824 140.768721,226.583886 C155.57057,239.061948 171.008506,237.665996 187.08253,222.396029 C205.479117,194.641763 225.277129,180.764629 246.476565,180.764629 C267.676001,180.764629 290.823417,203.124038 315.918814,247.842854 C330.735739,262.122321 345.964419,260.102336 361.604853,241.782898 C377.245288,223.463461 419.667147,252.517484 488.870432,328.944968 L488.870432,467.391417 L90.1993355,375.666448 L90.8037101,208.990364 Z" id="Path-39" stroke="none" fill="url(#linearGradient-8)" fill-rule="evenodd"></path>
                    <path d="M361.317624,384.3077 C361.127847,379.200139 362.523229,375.960539 365.503772,374.5889 C368.484315,373.21726 368.814869,369.494199 366.495436,363.419716 C364.707609,357.445029 366.986272,353.736796 373.331425,352.295016 C379.676577,350.853235 380.830962,345.789575 376.794579,337.104036 C375.893236,333.225171 376.908169,330.836295 379.839378,329.937407 C384.236191,328.589076 389.842332,330.939397 389.843843,337.107238 C389.84485,341.219132 393.748529,341.220089 401.554879,337.110111 C410.305043,333.618714 414.322812,334.654718 413.608187,340.218123 C412.536249,348.56323 412.246858,350.003365 416.972151,355.388079 C421.697444,360.772793 429.621155,364.743132 424.328329,376.617275 C420.799778,384.53337 418.350333,388.131197 416.979993,387.410758 L361.317624,384.3077 Z" id="Path-41" stroke="none" fill="url(#linearGradient-9)" fill-rule="evenodd" transform="translate(393.691874, 358.535190) rotate(7.000000) translate(-393.691874, -358.535190) "></path>
                    <path d="M74.3394937,392.808714 C215.779497,372.714555 320.86529,368.31516 389.596873,379.610531 C458.328455,390.905902 501.055323,402.90679 517.777476,415.613195 C506.977423,483.662129 410.237621,509.735225 227.558068,493.832485 C44.8785157,477.929746 -6.19434246,444.255155 74.3394937,392.808714 Z" id="Path-50" stroke="none" fill="url(#linearGradient-10)" fill-rule="evenodd"></path>
                </g>
            </g>
            <g id="Side-bushes-1" transform="translate(51.700997, 628.182055) rotate(-1.000000) translate(-51.700997, -628.182055) translate(0.700997, 589.232770)" fill="url(#linearGradient-11)">
                <path d="M0,0 C4.50179974,10.3445916 13.3954103,12.9307396 26.6808317,7.75844374 C39.9662531,2.58614791 45.5235333,4.93747422 43.3526723,14.8124226 C43.2349377,21.6455759 46.911046,21.6455759 54.3809972,14.8124226 C65.5859241,4.56269271 71.8692344,15.5650959 71.8692344,27.9251101 C71.8692344,40.2851243 69.8259192,43.4046749 82.4235226,41.8448996 C95.021126,40.2851243 103.679267,45.9566104 97.2968121,57.1331859 C93.041842,64.5842362 94.6095713,67.5630494 102,66.0696254 L0,77.8985696 L0,0 Z" id="Path-40"></path>
            </g>
            <g id="Desktop" transform="translate(30.700997, 482.371912)">
                <g id="floor" transform="translate(67.498339, 176.769831)">
                    <g id="Rectangle" transform="translate(0.501661, 0.000000)">
                        <g id="Mask" transform="translate(0.498339, 0.000000)">
                            <mask id="mask-13" fill="white">
                                <use xlink:href="#path-12"></use>
                            </mask>
                            <use fill="#FFFFFF" opacity="0.475353423" xlink:href="#path-12"></use>
                        </g>
                        <rect x="-99" y="-293.617685" width="297" height="401.477243"></rect>
                    </g>
                </g>
                <g id="Desktop-stand" transform="translate(81.000000, 150.803641)">
                    <g id="Group-3" transform="translate(0.000000, 0.332867)">
                        <mask id="mask-15" fill="white">
                            <use xlink:href="#path-14"></use>
                        </mask>
                        <g id="Clip-2"></g>
                        <path d="M63.3523,0.66583303 C63.3523,0.66583303 83.5003,35.2877524 45.1663,41.945084 C45.0003,41.4457342 0.0003,41.945084 0.0003,41.945084 L0.0003,33.6229202 C0.0003,33.6229202 18.8333,35.4535365 24.6663,23.8027069 C24.1663,24.3020567 30.6663,0.66583303 30.6663,0.66583303 L63.3523,0.66583303 Z" id="Fill-1" fill="url(#linearGradient-16)" mask="url(#mask-15)"></path>
                    </g>
                    <g id="Group-6" transform="translate(0.000000, 0.332867)">
                        <mask id="mask-18" fill="white">
                            <use xlink:href="#path-17"></use>
                        </mask>
                        <g id="Clip-5"></g>
                        <path d="M16.3333,0.66583303 C16.3333,0.66583303 36.1663,21.3059579 8.6663,30.6268213 C8.2203,30.7786237 0.0003,33.6229202 0.0003,33.6229202 L43.0003,33.6229202 C43.0003,33.6229202 74.6663,32.6242205 59.0003,0.66583303 C59.3333,1.33196567 16.3333,0.66583303 16.3333,0.66583303" id="Fill-4" fill="url(#linearGradient-19)" mask="url(#mask-18)"></path>
                    </g>
                </g>
                <g id="Group-3" transform="translate(102.000000, 150.587922)">
                    <mask id="mask-21" fill="white">
                        <use xlink:href="#path-20"></use>
                    </mask>
                    <g id="Clip-2"></g>
                    <path d="M30.898,0.66613264 C30.898,0.66613264 24.399,24.3013576 24.898,23.8020078 L24.898,23.8020078 C19.065,35.4538362 0.232,33.6232198 0.232,33.6232198 L0.232,33.6232198 L0.232,41.9453836 C0.232,41.9453836 45.232,41.4460338 45.398,41.9453836 L45.398,41.9453836 C83.732,35.288052 63.584,0.66613264 63.584,0.66613264 L63.584,0.66613264 L30.898,0.66613264 Z" id="Fill-1" mask="url(#mask-21)"></path>
                </g>
                <g id="Group-20" transform="translate(29.000000, 0.782980)">
                    <path d="M39.1169,28.9584936 C39.1169,28.9584936 16.9779,108.145386 17.2889,109.077172 C13.8659,121.507986 21.0229,121.507986 21.0229,121.507986 L182.0379,116.95891 C188.2619,115.093339 187.9509,107.63505 187.9509,107.63505 C187.9509,107.63505 200.0649,15.4171256 199.4429,16.9711022 C199.7539,11.0667901 191.6639,12.3091724 191.6639,12.3091724 L45.7319,22.6367251 C45.7319,22.6367251 40.9779,22.2901763 39.1169,28.9584936" id="Fill-4" fill="#F4F5F5"></path>
                    <path d="M190.5651,148.806242 L5.2321,150.471074 C5.2321,150.471074 -2.4349,150.471074 1.2321,137.154414 C0.8981,136.155714 28.8981,20.3065592 28.8981,20.3065592 C28.8981,20.3065592 29.2321,9.65442913 41.5651,11.3182627 C42.5651,11.3182627 206.2321,0.33256697 206.2321,0.33256697 C206.2321,0.33256697 214.8981,-0.99869961 214.5651,5.32606502 C215.2321,3.66223147 196.8981,138.819246 196.8981,138.819246 C196.8981,138.819246 197.2321,146.808843 190.5651,148.806242" id="Fill-6" fill="#F3F3F3"></path>
                    <path d="M190.5651,148.806242 L5.2321,150.471074 C5.2321,150.471074 -2.4349,150.471074 1.2321,137.154414 C0.8981,136.155714 28.8981,20.3065592 28.8981,20.3065592 C28.8981,20.3065592 29.2321,9.65442913 41.5651,11.3182627 C42.5651,11.3182627 206.2321,0.33256697 206.2321,0.33256697 C206.2321,0.33256697 214.8981,-0.99869961 214.5651,5.32606502 C215.2321,3.66223147 196.8981,138.819246 196.8981,138.819246 C196.8981,138.819246 197.2321,146.808843 190.5651,148.806242 Z" id="Stroke-8" stroke="#FEFEFE" stroke-width="2"></path>
                    <path d="M187.0381,125.946807 L12.0231,128.499483 C12.0231,128.499483 4.8661,128.499483 8.2891,116.068669 C7.9781,115.135883 34.1171,23.9645961 34.1171,23.9645961 C34.1171,23.9645961 34.4281,14.0205441 45.9421,15.5745207 C46.8751,15.5745207 199.6631,5.31887438 199.6631,5.31887438 C199.6631,5.31887438 207.7541,4.07549337 207.4431,9.97980546 C208.0651,8.42682757 192.9501,116.623946 192.9501,116.623946 C192.9501,116.623946 193.2621,124.082235 187.0381,125.946807" id="Fill-10" fill="#FEFEFE"></path>
                    <path d="M44.4054,33.9452005 L23.1554,110.595396 C23.1554,110.595396 20.6554,117.086943 30.2804,116.088243 C30.4054,116.088243 73.1554,113.841169 73.1554,113.841169 C73.1554,113.841169 76.4054,114.590194 77.5304,108.348321 C77.7804,107.973809 95.5304,33.0713384 95.5304,33.0713384 L44.4054,33.9452005 Z" id="Fill-12" fill="#FEFEFE"></path>
                    <path d="M180.6747,121.224356 L19.6467,123.573297 C19.6467,123.573297 13.0617,123.573297 16.2107,112.135191 C15.9247,111.277308 39.9747,27.3925326 39.9747,27.3925326 C39.9747,27.3925326 40.2607,18.2424468 50.8537,19.6725847 C51.7127,19.6725847 192.2907,10.235872 192.2907,10.235872 C192.2907,10.235872 199.7347,9.09236099 199.4487,14.5252869 C200.0217,13.095149 186.1147,112.646525 186.1147,112.646525 C186.1147,112.646525 186.4007,119.50859 180.6747,121.224356" id="Fill-14" fill="#F2F2F2"></path>
                    <path d="M53.5651,26.2052785 L92.5651,24.6343241 L96.2321,28.3794476 L84.2321,86.5536999 L80.2321,106.861258 C80.2321,106.861258 79.4821,114.017939 68.2321,114.517289 C69.2321,113.852155 36.4821,115.016639 36.4821,115.016639 C36.4821,115.016639 26.9821,115.724717 29.7321,102.887432 C30.2321,102.782569 45.2321,32.6239209 45.2321,32.6239209 C45.2321,32.6239209 46.1551,26.4589482 53.5651,26.2052785" id="Fill-16" fill="#FEFEFE"></path>
                    <path d="M53.1554,25.9556036 C50.0374,26.3111407 45.5724,27.370761 44.4054,34.9439001 L95.5304,33.0713384 C95.5304,33.0713384 98.9054,25.7059287 94.0304,24.2078793 C94.1554,24.2078793 63.3174,24.7971121 53.1554,25.9556036" id="Fill-18" fill="#FF9171"></path>
                </g>
                <g id="Group-41" transform="translate(0.000000, 38.733566)">
                    <g id="Group-26" transform="translate(0.000000, 7.989597)">
                        <mask id="mask-23" fill="white">
                            <use xlink:href="#path-22"></use>
                        </mask>
                        <g id="Clip-25"></g>
                        <path d="M16.9556,2.47457789 L0.3406,56.9126949 C0.3406,56.9126949 -2.5744,64.4808406 8.6486,63.3163568 C8.7936,63.3163568 90.1196,60.6967678 90.1196,60.6967678 C90.1196,60.6967678 93.9086,61.5706299 95.2206,54.2921072 C95.5126,53.8556754 108.0466,0.291420546 108.0466,0.291420546 L16.9556,2.47457789 Z" id="Fill-24" fill="#EFEEEE" mask="url(#mask-23)"></path>
                    </g>
                    <path d="M21.2318,13.648928 L6.9818,60.3381347 C6.9818,60.3381347 4.4818,66.8296822 14.1068,65.8309826 C14.2318,65.8309826 83.9818,63.5839085 83.9818,63.5839085 C83.9818,63.5839085 87.2318,64.3329332 88.3568,58.0910606 C88.6068,57.7165482 99.3568,11.7763662 99.3568,11.7763662 L21.2318,13.648928 Z" id="Fill-27" fill="#CECECD"></path>
                    <path d="M19.2318,11.6515287 L4.9818,58.3407355 C4.9818,58.3407355 2.4818,64.832283 12.1068,63.8335834 C12.2318,63.8335834 81.9818,61.5865092 81.9818,61.5865092 C81.9818,61.5865092 85.2318,62.3355339 86.3568,56.0936614 C86.6068,55.719149 97.3568,9.77896697 97.3568,9.77896697 L19.2318,11.6515287 Z" id="Fill-29" fill="#FFFFFF"></path>
                    <path d="M27.9818,3.66193186 C27.9818,3.66193186 20.3988,4.0783896 19.2318,11.6515287 L97.3568,9.77896697 C97.3568,9.77896697 100.7318,2.41355735 95.8568,0.915507932 C95.9818,0.915507932 27.9818,3.66193186 27.9818,3.66193186" id="Fill-31" fill="#F9A31A"></path>
                    <polygon id="Fill-33" fill="#A7D7B5" points="88.8568 18.2679137 87.3908 21.744387 20.2318 23.7607615 20.9818 20.3901503"></polygon>
                    <polygon id="Fill-35" fill="#B6C8E7" points="86.8568 28.2549098 85.3908 31.7313831 18.2318 33.7477576 18.9818 30.3771464"></polygon>
                    <polygon id="Fill-37" fill="#71C27C" points="48.7491 19.5218809 48.3051 22.9484192 20.2321 23.760362 20.9821 20.3897508"></polygon>
                    <polygon id="Fill-39" fill="#7691CA" points="49.8568 29.2536094 48.3908 32.7300827 18.2318 33.7477576 18.9818 30.3771464"></polygon>
                </g>
                <g id="Group-44" transform="translate(91.000000, 41.729664)">
                    <mask id="mask-25" fill="white">
                        <use xlink:href="#path-24"></use>
                    </mask>
                    <g id="Clip-43"></g>
                    <path d="M0.232,2.53769571 C0.232,3.71016905 1.183,4.65993238 2.357,4.65993238 L2.357,4.65993238 C3.531,4.65993238 4.482,3.71016905 4.482,2.53769571 L4.482,2.53769571 C4.482,1.36622107 3.531,0.416457737 2.357,0.416457737 L2.357,0.416457737 C1.183,0.416457737 0.232,1.36622107 0.232,2.53769571" id="Fill-42" mask="url(#mask-25)"></path>
                </g>
                <path d="M75.3985,91.9975116 L58.0445,91.9975116 C56.1195,91.9975116 54.5445,90.4245597 54.5445,88.5020629 L54.5445,88.5020629 C54.5445,86.5795662 56.1195,85.0066143 58.0445,85.0066143 L75.3985,85.0066143 C77.3235,85.0066143 78.8985,86.5795662 78.8985,88.5020629 L78.8985,88.5020629 C78.8985,90.4245597 77.3235,91.9975116 75.3985,91.9975116" id="Fill-45" fill="#F9A31A"></path>
                <g id="Group-49" transform="translate(118.000000, 26.749170)">
                    <mask id="mask-27" fill="white">
                        <use xlink:href="#path-26"></use>
                    </mask>
                    <g id="Clip-48"></g>
                    <path d="M0.232,2.53869441 C0.232,3.71116775 1.183,4.66093108 2.357,4.66093108 L2.357,4.66093108 C3.531,4.66093108 4.482,3.71116775 4.482,2.53869441 L4.482,2.53869441 C4.482,1.36622107 3.531,0.416457737 2.357,0.416457737 L2.357,0.416457737 C1.183,0.416457737 0.232,1.36622107 0.232,2.53869441" id="Fill-47" mask="url(#mask-27)"></path>
                </g>
                <g id="Group-70" transform="translate(115.000000, 21.755672)">
                    <path d="M24.5651,3.23518752 L99.5651,0.66553342 L104.2321,5.40935657 L96.8981,63.2510419 L94.2321,83.8911667 C94.2321,83.8911667 93.4821,91.0478481 82.2321,91.5471979 C83.2321,90.882064 7.4821,94.0439469 7.4821,94.0439469 C7.4821,94.0439469 -2.0179,94.752025 0.7321,81.9147402 C1.2321,81.8098767 16.2321,9.65382991 16.2321,9.65382991 C16.2321,9.65382991 17.1551,3.48885722 24.5651,3.23518752" id="Fill-50" fill="#FEFEFE"></path>
                    <polygon id="Fill-52" fill="#A7D7B5" points="82.7663 14.1667537 81.4443 16.5136978 20.8763 17.8749254 21.5533 15.5988889"></polygon>
                    <polygon id="Fill-54" fill="#B6C8E7" points="80.9626 20.9082757 79.6406 23.2552198 19.0726 24.6164473 19.7496 22.3404109"></polygon>
                    <polygon id="Fill-56" fill="#71C27C" points="46.5952 15.0132515 46.1942 17.3262398 20.8772 17.8745259 21.5532 15.5994882"></polygon>
                    <path d="M21.6944,41.0335709 L10.0084,79.3217165 C10.0084,79.3217165 7.9584,84.6457841 15.8514,83.8268505 C15.9544,83.8268505 73.1534,81.983251 73.1534,81.983251 C73.1534,81.983251 75.8184,82.5974512 76.7414,77.4791157 C76.9464,77.1715163 85.7624,39.4975709 85.7624,39.4975709 L21.6944,41.0335709 Z" id="Fill-58" fill="#CECECD"></path>
                    <polygon id="Fill-60" fill="#7691CA" points="47.5941 21.5823979 46.2721 23.929342 19.0731 24.6164473 19.7491 22.3404109"></polygon>
                    <path d="M20.6944,39.0361717 L9.0084,77.3243173 C9.0084,77.3243173 6.9584,82.6483849 14.8514,81.8294512 C14.9544,81.8294512 72.1534,79.9858518 72.1534,79.9858518 C72.1534,79.9858518 74.8184,80.600052 75.7414,75.4817165 C75.9464,75.174117 84.7624,37.5001717 84.7624,37.5001717 L20.6944,39.0361717 Z" id="Fill-62" fill="#FEFEFE"></path>
                    <path d="M27.8699,32.484103 C27.8699,32.484103 21.6509,32.8256583 20.6939,39.0365711 L84.7619,37.5005711 C84.7619,37.5005711 87.5299,31.4604359 83.5319,30.2320354 C83.6349,30.2320354 27.8699,32.484103 27.8699,32.484103" id="Fill-64" fill="#F9A31A"></path>
                    <path d="M38.0885,63.7558845 C36.1635,63.7558845 34.5885,62.1829326 34.5885,60.2604359 L36.5885,53.4043631 C36.5885,51.4818663 38.1635,49.9089144 40.0885,49.9089144 L57.4425,49.9089144 C59.3675,49.9089144 60.9425,51.4818663 60.9425,53.4043631 L58.9425,60.2604359 C58.9425,62.1829326 57.3675,63.7558845 55.4425,63.7558845 L38.0885,63.7558845 Z" id="Fill-66" fill="#FECD38"></path>
                    <polygon id="Fill-68" fill="#FEFEFE" points="46.5952 53.8364005 45.2322 59.7077555 50.5842 56.7715787"></polygon>
                </g>
            </g>
            <g id="Illustration-circle" transform="translate(30.700997, 288.624187)">
                <path d="M245,154.79844 C245,166.381358 235.598,175.771131 224,175.771131 C212.402,175.771131 203,166.381358 203,154.79844 C203,143.215521 212.402,133.825748 224,133.825748 C235.598,133.825748 245,143.215521 245,154.79844" id="Fill-23" fill="#FECD38"></path>
                <path d="M86,90.8816645 C78.8202319,90.8816645 73,85.0690012 73,77.8985696 C73,70.728138 78.8202319,64.9154746 86,64.9154746 C93.1797681,64.9154746 99,70.728138 99,77.8985696 C99,85.0690012 93.1797681,90.8816645 86,90.8816645 Z" id="Fill-24" fill="#26AEF9"></path>
                <path d="M7,38.9492848 C3.13397101,38.9492848 0,35.8193892 0,31.9583875 C0,28.0973859 3.13397101,24.9674902 7,24.9674902 C10.866029,24.9674902 14,28.0973859 14,31.9583875 C14,35.8193892 10.866029,38.9492848 7,38.9492848 Z" id="Fill-24" fill="#F22D7E"></path>
                <path d="M205,17.976593 C200.029391,17.976593 196,13.9524415 196,8.98829649 C196,4.02415152 200.029391,0 205,0 C209.970609,0 214,4.02415152 214,8.98829649 C214,13.9524415 209.970609,17.976593 205,17.976593 Z" id="Fill-24" fill="#1C2D9A"></path>
                <path d="M224,175.771131 C212.402,175.771131 203,166.381358 203,154.79844 C203,143.215521 212.402,133.825748 224,133.825748" id="Fill-36" fill="#F9BB21"></path>
            </g>
            <g id="Human-2" transform="translate(169.700997, 532.306892)">
                <polygon id="Fill-14" fill="#394784" points="72 99.869961 67 182.762029 54.833 182.762029 50 101.555096"></polygon>
                <polygon id="Fill-17" fill="#D8547A" points="27.4275224 38.9492848 21 54.8442707 33.5170746 69.0479985 33.5170746 102.86606 72.422209 99.8224039 72.422209 61.2694284 74.1983284 60.5927223 77.4968358 64.3130844 89 56.1966685 81.8955224 46.0511487 76.4819104 43.0074927 33.8550448 43.0074927"></polygon>
                <polygon id="Fill-16" fill="#FFA5A5" points="46.1141682 44.9414824 46.1141682 40.4913866 42 34.7960756 47.3144767 26.9648895 54 32.3045773 53.1421959 39.7801402 53.1421959 44.9414824"></polygon>
                <path d="M59.0071116,100.868661 L37.9588846,142.052548 L77,171.324323 L73.69005,176.769831 L31.509065,157.710043 C31.509065,157.710043 14.1954802,152.944585 20.3061572,136.436517 C20.3061572,134.564847 32.8666538,102.910854 32.8666538,102.910854 L59.0071116,100.868661 Z" id="Fill-18" fill="#515C99"></path>
                <polygon id="Fill-19" fill="#012437" points="77.1515152 170.777633 82 180.098497 82 189.752926 74 189.752926 74 188.088094 77.1515152 187.089394 77.1515152 180.26528 74 176.103698"></polygon>
                <polygon id="Fill-20" fill="#012437" points="56.9149798 182.762029 56.9149798 185.758127 48 185.758127 48 189.752926 64 188.421659 64 182.762029"></polygon>
                <path d="M5.98074659,4.60577549 L17.4306004,29.3408369 L27,38.8932153 L20.5065887,54.9284785 C20.5065887,54.9284785 6.83484601,42.9872379 5.98074659,30.70517 C5.46808187,31.7286756 3.41742301,4.60577549 3.41742301,4.60577549 L0,0 L7.51874074,1.70618394 L5.98074659,4.60577549 Z" id="Fill-21" fill="#FFA5A5"></path>
                <path d="M77.3646531,64.9951836 L84.9573811,73.0644895 L74,89.5389861 L75.6388449,97.8725618 L77.3646531,97.8725618 L78.2705212,92.5649758 L94.6196295,77.7719208 C94.6196295,77.7719208 97.7254631,72.0558263 94.6196295,68.0211733 C91.5137959,63.9865204 89.0984926,56.9258778 89.0984926,56.9258778 L77.3646531,64.9951836 Z" id="Fill-22" fill="#FFA5A5"></path>
                <path d="M51.2943964,24.9674902 C51.2943964,24.9674902 45.585166,25.14058 47.7474073,29.37247 C48.1802708,29.4584967 50.342512,32.3087777 50.342512,32.3087777 L47.8346028,35.3321486 L44.5139068,32.7275099 C44.5139068,32.7275099 38.8576165,38.3555194 44.5139068,40.2553613 C45.0661451,40.5144778 49.2183127,38.5275727 49.2183127,38.5275727 L51.7272599,39.4780119 L54.8413856,40.946684 C54.8413856,40.946684 59.5987316,34.4687725 57.4364903,31.1862852 C57.6088053,31.1862852 51.2943964,24.9674902 51.2943964,24.9674902" id="Fill-27" fill="#17316F"></path>
                <line x1="99" y1="191.250975" x2="29" y2="191.250975" id="Stroke-35" stroke="#F4F4F4" stroke-width="0.72"></line>
            </g>
            <g id="Human-1" transform="translate(22.700997, 539.297789)">
                <path d="M60.4452399,189.41619 C78.1060094,190.47247 86.9363942,189.04373 86.9363942,185.129969 C86.9363942,181.216209 85.0739565,179.901533 81.3490811,181.185943 C78.0592473,178.451418 81.9600557,177.36525 93.0515066,177.927439 C109.688683,178.770723 99.1666189,171.867826 93.0515066,171.867826 C86.9363942,171.867826 82.578313,171.151091 72.2206833,173.729747 C65.3155969,175.44885 59.5331859,175.44885 54.8734504,173.729747 C47.8809723,172.493006 40.5609674,173.892237 32.9134356,177.927439 C25.2659039,181.962642 15.8561665,183.04881 4.68422338,181.185943 C-4.21323827,185.918018 -0.435467968,187.758375 16.0175343,186.707012 C32.4705365,185.65565 47.2797717,186.558709 60.4452399,189.41619 Z" id="Path-44" fill="#FFFFFF" opacity="0.479329427"></path>
                <path d="M47,177.768531 L47,183.760728 L63.9991883,183.760728 C63.9991883,183.760728 64.2604545,179.67551 55.4085064,179.67551 L47,177.768531 Z" id="Fill-10" fill="#012437"></path>
                <path d="M24.7325734,86.8868661 L16.3960019,118.928477 L4.16460383,152.979074 L3,164.620012 C3,164.620012 6.49468517,167.239289 7.95109521,164.620012 C7.659289,164.03766 8.53296029,159.090719 8.53296029,159.090719 C8.53296029,159.090719 42.1518316,114.893045 45,97.121253 C44.3534832,96.8095591 24.7325734,86.8868661 24.7325734,86.8868661" id="Fill-11" fill="#00334D"></path>
                <path d="M49.0499318,7.50873333 L43.6832891,6.33732544 C43.6832891,6.33732544 29.0094559,24.1306526 30.4832933,40.4612509 C30.4832933,39.5864131 30.3789665,62.3321974 30.3789665,62.3321974 L24,87.9938162 L60.1015023,102.86606 L67.6165702,67.8725455 C67.6165702,67.8725455 97.4257503,35.3574469 83.1108721,0 C83.1373959,0.0253702979 79.4055015,0 79.4055015,0 L76.4578266,27.3386831 L65.848319,43.3770855 L41.6825128,42.7935686 L39.6189636,28.2135209 L49.0499318,7.50873333 Z" id="Fill-12" fill="#245BA8"></path>
                <polygon id="Fill-13" fill="#004C73" points="38 93.8777633 44.3880208 140.580437 45.8350694 178.76723 54.4826389 178.76723 59 102.685728"></polygon>
                <path d="M52.2404687,28.9622887 C52.2404687,28.9622887 57.9962501,32.5611156 55.2642191,38.128192 C55.0065627,38.2789707 53.1138801,39.4824921 53.1138801,39.4824921 L53.5505858,42.9440832 L47,42.9440832 L47,35.953186 C47,35.953186 47.4367057,30.7806623 52.2404687,28.9622887" id="Fill-28" fill="#FFA5A5"></path>
                <path d="M53.8830262,26.9648895 C53.8830262,26.9648895 40.4743319,28.3984746 44.8936152,36.4246594 C44.8936152,36.9982655 48.0933445,41.0109279 49.9217613,37.5710115 C50.0735199,37.2846385 50.3605813,35.3264661 48.9417299,34.2747117 C49.1593115,34.7047012 48.077803,33.026882 51.2793607,32.2683805 C51.4448325,32.5547535 54.6445618,29.9748163 53.8830262,26.9648895" id="Fill-29" fill="#282738"></path>
                <line x1="80" y1="183.261378" x2="20" y2="183.261378" id="Stroke-34" stroke="#F4F4F4" stroke-width="0.72"></line>
            </g>
            <g id="Bush-2" transform="translate(0.199336, 0.000000)">
                <path d="M0.652551043,697.902788 C0.6729714,706.937824 0.728257996,711.546693 0.818410831,711.729396 C4.46079095,719.111028 11.3053996,720.851857 21.3522369,716.951884 C31.7720792,712.907118 36.1307703,714.746075 34.4283104,722.468756 C34.336091,727.812632 37.2193121,727.812698 43.0779736,722.468952 C51.865966,714.453334 56.794246,723.057893 56.7944656,732.724062 C56.7946853,742.39023 55.1921412,744.829844 65.0725828,743.610243 C74.9530244,742.390642 81.7438216,746.826191 76.738175,755.566736 C73.4010772,761.393766 74.4869317,764.998399 79.9957384,766.380636 L1.00777045,765.001895 L0.652551043,697.902788 Z" id="Path-40" fill="url(#linearGradient-28)" transform="translate(40.324145, 732.141712) rotate(-1.000000) translate(-40.324145, -732.141712) "></path>
                <mask id="mask-30" fill="white">
                    <use xlink:href="#path-29"></use>
                </mask>
                <g id="Mask"></g>
                <g mask="url(#mask-30)" fill="url(#linearGradient-31)" id="Path-42">
                    <g transform="translate(250.001661, 756.015605) rotate(13.000000) translate(-250.001661, -756.015605) translate(193.501661, 727.053316)">
                        <path d="M8.18209106,57.0612733 C-2.04980208,49.9917304 -3.38453195,41.9896493 8.18209106,37.2786965 C19.7487141,32.5677437 25.6874074,37.4748564 29.7024737,24.1889109 C33.7175401,10.9029653 44.3658565,4.09496901 55.4539035,15.6746343 C62.8459348,23.3944111 70.2272104,21.5002739 77.5977301,9.99222257 C82.4106992,-2.48689958e-14 87.5910083,-2.49805564 93.1386574,2.49805564 C101.460131,9.99222257 99.6704069,17.5630458 107.172744,16.4304729 C112.179535,15.6746343 115.879722,24.2195816 109.954078,27.4788715 C87.6270428,39.7594421 16.2679735,62.6480686 8.18209106,57.0612733 Z"></path>
                    </g>
                </g>
            </g>
            <g id="Leaves-1" transform="translate(0.199336, 0.000000)">
                <mask id="mask-33" fill="white">
                    <use xlink:href="#path-32"></use>
                </mask>
                <g id="Mask"></g>
                <g mask="url(#mask-33)">
                    <g transform="translate(45.562246, 761.023113) rotate(1.000000) translate(-45.562246, -761.023113) translate(10.562246, 705.095935)">
                        <path d="M55.86,94.4470221 L53.7822348,94.3414699 L52.6805138,94.2856406 L49.5584018,94.1260038 C49.5584018,94.1260038 20.7087482,31.5754084 38.7823001,11.1767874 C44.3462301,4.89773867 54.0732039,10.1038185 51.9223549,38.9658086 C49.929968,65.7211159 55.86,94.4470221 55.86,94.4470221" id="Fill-1" fill="#FECD38"></path>
                        <g id="Group-5" stroke-width="1" fill="none">
                            <path d="M61.21935,106.883704 L58.4297908,108.222898 L56.9499473,108.933117 L52.7588575,110.944093 C52.7588575,110.944093 -12.318478,47.8027776 2.75540284,7.62694392 C7.39611662,-4.74116769 22.4882255,-4.70622459 32.0943815,35.4486432 C40.9997722,72.6691639 61.21935,106.883704 61.21935,106.883704" id="Fill-3" fill="#FF7C55"></path>
                            <g id="Group-7" transform="translate(5.960869, 11.736469)" stroke="#FFFFFF" stroke-width="0.5">
                                <path d="M22.8311954,-0.988190947 C16.5728333,45.7395113 17.9171127,75.6488698 26.8640335,88.7398846" id="Path-6" opacity="0.38453311" transform="translate(22.915699, 43.875847) rotate(-19.000000) translate(-22.915699, -43.875847) "></path>
                                <line x1="14.592334" y1="26.2976304" x2="18.1266504" y2="11.482936" id="Path-9" opacity="0.4"></line>
                                <line x1="16.3594922" y1="36.9111642" x2="2.58207031" y2="22.978661" id="Path-10" opacity="0.4"></line>
                                <line x1="9.47078125" y1="6.99934041" x2="0" y2="1.26079685" id="Path-11" opacity="0.4"></line>
                            </g>
                            <g id="Group-7-Copy" transform="translate(45.854612, 53.518683) rotate(13.000000) translate(-45.854612, -53.518683) translate(29.354612, 18.064847)" stroke="#FFFFFF" stroke-width="0.5">
                                <path d="M18.2649563,-0.790552758 C13.2582666,36.591609 14.3336901,60.5190959 21.4912268,70.9919077" id="Path-6" opacity="0.38453311" transform="translate(18.332559, 35.100677) rotate(-19.000000) translate(-18.332559, -35.100677) "></path>
                                <line x1="11.6738672" y1="21.0381043" x2="14.5013203" y2="9.18634879" id="Path-9" opacity="0.4"></line>
                                <line x1="13.0875937" y1="29.5289314" x2="2.06565625" y2="18.3829288" id="Path-10" opacity="0.4"></line>
                                <line x1="7.576625" y1="5.59947233" x2="0" y2="1.00863748" id="Path-11" opacity="0.4"></line>
                            </g>
                        </g>
                    </g>
                </g>
            </g>
        </g>
    </g>
</svg>