<?xml version="1.0" encoding="UTF-8"?>
<svg width="12px" height="13px" viewBox="0 0 12 13" version="1.1" xmlns="http://www.w3.org/2000/svg" xmlns:xlink="http://www.w3.org/1999/xlink">
    <!-- Generator: Sketch 64 (93537) - https://sketch.com -->
    <title>book-3-line</title>
    <desc>Created with Sketch.</desc>
    <g id="Page-1" stroke="none" stroke-width="1" fill="none" fill-rule="evenodd">
        <g id="27_Instructor-detail" transform="translate(-133.000000, -872.000000)">
            <g id="Course-1" transform="translate(111.000000, 758.000000)">
                <g id="Group-4" transform="translate(20.000000, 112.000000)">
                    <g id="book-3-line">
                        <polygon id="Path" points="0 0 16 0 16 16 0 16"></polygon>
                        <path d="M14,3.3 L4.66666667,3.3 C3.930287,3.3 3.33333333,3.88202983 3.33333333,4.6 C3.33333333,5.31797017 3.930287,5.9 4.66666667,5.9 L14,5.9 L14,14.35 C14,14.7089851 13.7015232,15 13.3333333,15 L4.66666667,15 C3.19390733,15 2,13.8359403 2,12.4 L2,4.6 C2,3.16405965 3.19390733,2 4.66666667,2 L13.3333333,2 C13.7015232,2 14,2.29101491 14,2.65 L14,3.3 Z M3.33333333,12.4 C3.33333333,13.1179702 3.930287,13.7 4.66666667,13.7 L12.6666667,13.7 L12.6666667,7.2 L4.66666667,7.2 C4.19854907,7.20073043 3.7385571,7.08075877 3.33333333,6.85225 L3.33333333,12.4 Z M13.3333333,5.25 L4.66666667,5.25 C4.29847683,5.25 4,4.95898509 4,4.6 C4,4.24101491 4.29847683,3.95 4.66666667,3.95 L13.3333333,3.95 L13.3333333,5.25 Z" id="Shape" fill="#9BA4B5" fill-rule="nonzero"></path>
                    </g>
                </g>
            </g>
        </g>
    </g>
</svg>