<?xml version="1.0" encoding="UTF-8"?>
<svg width="14px" height="14px" viewBox="0 0 14 14" version="1.1" xmlns="http://www.w3.org/2000/svg" xmlns:xlink="http://www.w3.org/1999/xlink">
    <!-- Generator: Sketch 64 (93537) - https://sketch.com -->
    <title>ribbon</title>
    <desc>Created with Sketch.</desc>
    <g id="Page-1" stroke="none" stroke-width="1" fill="none" fill-rule="evenodd">
        <g id="1_Students-dashboard" transform="translate(-528.000000, -177.000000)" fill="#68D3A3" fill-rule="nonzero">
            <g id="ribbon" transform="translate(528.000000, 177.000000)">
                <path d="M6.911784,0 C4.291272,0 2.159784,2.131488 2.159784,4.752 C2.159784,7.372512 4.291272,9.504 6.911784,9.504 C9.531432,9.504 11.663784,7.372512 11.663784,4.752 C11.663784,2.131488 9.531432,0 6.911784,0 Z M9.409608,4.079808 L8.588808,5.107968 L8.678664,6.451488 C8.689032,6.60096 8.620776,6.745248 8.497224,6.832512 C8.422056,6.885216 8.334792,6.912 8.246664,6.912 C8.18964,6.912 8.131752,6.900768 8.078184,6.87744 L6.911784,6.382368 L5.746248,6.87744 C5.608008,6.936192 5.449032,6.919776 5.327208,6.832512 C5.20452,6.745248 5.136264,6.60096 5.145768,6.451488 L5.235624,5.107968 L4.414824,4.079808 C4.32324,3.96576 4.296456,3.812832 4.342248,3.673728 C4.38804,3.534624 4.501224,3.429216 4.64292,3.392064 L5.868072,3.07152 L6.540264,1.93968 C6.695784,1.677024 7.127784,1.677024 7.28244,1.93968 L7.954632,3.07152 L9.180648,3.392064 C9.32148,3.429216 9.434664,3.535488 9.48132,3.673728 C9.527976,3.811968 9.500328,3.964896 9.409608,4.079808 Z" id="Shape"></path>
                <path d="M2.051784,7.553952 L0.057672,11.016 C-0.029592,11.168064 -0.016632,11.35728 0.08964,11.49552 C0.195912,11.63376 0.37476,11.695968 0.544104,11.649312 L3.080808,10.967616 L3.755592,13.50432 C3.80052,13.6728 3.94308,13.79808 4.11588,13.821408 C4.134888,13.823136 4.15476,13.824 4.172904,13.824 C4.325832,13.824 4.469256,13.742784 4.547016,13.608 L6.433128,10.343808 C4.559112,10.184832 2.948616,9.10224 2.051784,7.553952 Z" id="Path"></path>
                <path d="M13.76676,11.016 L11.771784,7.553952 C10.875816,9.10224 9.264456,10.184832 7.39044,10.343808 L9.276552,13.608 C9.354312,13.742784 9.497736,13.824 9.650664,13.824 C9.668808,13.824 9.68868,13.823136 9.706824,13.820544 C9.880488,13.797216 10.022184,13.671936 10.067976,13.503456 L10.74276,10.966752 L13.279464,11.648448 C13.448808,11.695104 13.626792,11.632896 13.733928,11.494656 C13.841064,11.35728 13.85316,11.168064 13.76676,11.016 Z" id="Path"></path>
            </g>
        </g>
    </g>
</svg>