<?xml version="1.0" encoding="UTF-8"?>
<svg width="49px" height="49px" viewBox="0 0 49 49" version="1.1" xmlns="http://www.w3.org/2000/svg" xmlns:xlink="http://www.w3.org/1999/xlink">
    <!-- Generator: Sketch 64 (93537) - https://sketch.com -->
    <title>Playbutton</title>
    <desc>Created with Sketch.</desc>
    <g id="Page-1" stroke="none" stroke-width="1" fill="none" fill-rule="evenodd">
        <g id="22.1_Courses-list" transform="translate(-234.000000, -881.000000)">
            <g id="Playbutton" transform="translate(235.000000, 882.000000)">
                <circle id="Oval" stroke="#FFFFFF" stroke-width="1.9245601" cx="23.0947211" cy="23.0947211" r="23.0947211"></circle>
                <g id="play-button" transform="translate(18.475777, 15.396481)" fill="#FFFFFF" fill-rule="nonzero">
                    <path d="M13.8642224,7.32650881 L1.5185048,0.136875575 C1.20488568,-0.0456251917 0.819445384,-0.0456251917 0.506168267,0.136875575 C0.192891151,0.31903135 0,0.656088532 0,1.02109007 L0,15.4017365 C0,15.766738 0.192891151,16.1037952 0.506168267,16.285951 C0.662806826,16.3784088 0.83757168,16.4229128 1.01233653,16.4229128 C1.18710139,16.4229128 1.36186624,16.3770289 1.5185048,16.285951 L13.8642224,9.09631776 C14.1781836,8.91381699 14.3700487,8.57675981 14.3700487,8.21175827 C14.3700487,7.84675674 14.1774996,7.50935457 13.8642224,7.32650881 Z" id="Path"></path>
                </g>
            </g>
        </g>
    </g>
</svg>