<?xml version="1.0" encoding="UTF-8"?>
<svg width="11px" height="11px" viewBox="0 0 11 11" version="1.1" xmlns="http://www.w3.org/2000/svg" xmlns:xlink="http://www.w3.org/1999/xlink">
    <!-- Generator: Sketch 64 (93537) - https://sketch.com -->
    <title>star (2)</title>
    <desc>Created with Sketch.</desc>
    <g id="Page-1" stroke="none" stroke-width="1" fill="none" fill-rule="evenodd">
        <g id="1_Students-dashboard" transform="translate(-249.000000, -178.000000)" fill="#D6B0E6" fill-rule="nonzero">
            <g id="Group-22" transform="translate(67.000000, 159.000000)">
                <g id="star-(2)" transform="translate(182.000000, 19.000000)">
                    <path d="M10.9713036,4.15676799 C10.8992957,3.92434277 10.7017355,3.75926309 10.4680035,3.73728165 L7.29310873,3.43646005 L6.0376699,0.370181344 C5.94510029,0.145462791 5.73427989,0 5.50004432,0 C5.26580875,0 5.05498836,0.145462791 4.96241872,0.370706808 L3.70697989,3.43646005 L0.531581582,3.73728165 C0.298269176,3.75978853 0.101212551,3.92434277 0.0287849966,4.15676799 C-0.0436425581,4.38919318 0.0232459149,4.64412527 0.199740864,4.8048262 L2.59958533,7.00104293 L1.89192705,10.2538573 C1.84014514,10.4930258 1.92910595,10.7402513 2.11928073,10.8836998 C2.22150178,10.9607662 2.34109536,11 2.46169603,11 C2.56567951,11 2.66882372,10.9707498 2.76139335,10.91295 L5.50004432,9.20496633 L8.23768819,10.91295 C8.43801793,11.0387084 8.69054921,11.027236 8.88030435,10.8836998 C9.07056305,10.7398134 9.15943994,10.4925004 9.10765803,10.2538573 L8.39999975,7.00104293 L10.7998442,4.80526407 C10.9763392,4.64412527 11.0437312,4.38963105 10.9713036,4.15676799 Z" id="Path"></path>
                </g>
            </g>
        </g>
    </g>
</svg>